<?xml version="1.0" standalone="no"?>
<!DOCTYPE svg PUBLIC "-//W3C//DTD SVG 20010904//EN"
 "http://www.w3.org/TR/2001/REC-SVG-20010904/DTD/svg10.dtd">
<svg version="1.0" xmlns="http://www.w3.org/2000/svg"
 width="2954.000000pt" height="2954.000000pt" viewBox="0 0 2954.000000 2954.000000"
 preserveAspectRatio="xMidYMid meet">
<metadata>
Created by potrace 1.14, written by Peter Selinger 2001-2017
</metadata>
<g transform="translate(0.000000,2954.000000) scale(0.100000,-0.100000)"
fill="#000000" stroke="none">
<path d="M7719 21984 c-201 -36 -413 -150 -588 -317 -68 -65 -161 -166 -201
-217 -19 -25 -37 -47 -40 -50 -33 -33 -156 -211 -407 -590 -166 -250 -306
-460 -312 -467 -6 -7 -11 -14 -11 -16 0 -3 -381 -581 -420 -637 -11 -16 -840
-1266 -1237 -1865 -128 -192 -237 -357 -243 -365 -10 -15 -521 -786 -945
-1425 -127 -192 -382 -577 -567 -855 -665 -1002 -1211 -1826 -1237 -1864 -14
-21 -30 -46 -36 -55 -15 -24 -169 -256 -781 -1176 -307 -462 -579 -882 -605
-933 -86 -172 -105 -363 -54 -540 76 -259 280 -463 557 -558 38 -12 68 -21 68
-19 0 3 11 0 24 -5 13 -5 50 -12 83 -16 69 -9 3665 -11 3738 -2 169 21 361
100 511 211 76 57 268 243 330 321 21 27 44 54 50 60 24 25 195 271 276 396
88 136 360 563 570 893 62 98 120 189 128 202 8 13 48 77 89 142 41 65 98 154
126 198 29 44 76 118 106 165 31 47 93 145 140 218 46 73 123 195 171 270 48
75 106 168 130 205 80 126 93 147 149 234 31 49 104 163 162 255 58 91 127
199 153 240 59 92 80 125 139 218 26 41 58 91 70 110 13 19 123 193 245 385
122 193 235 370 251 395 84 131 622 976 739 1161 52 82 257 404 455 714 198
311 387 608 420 660 115 182 349 550 401 630 28 44 179 280 334 525 156 245
297 468 315 495 61 94 288 450 304 477 9 15 58 94 110 175 95 149 127 198 281
438 46 72 88 139 94 150 7 11 38 61 70 110 125 191 178 340 176 493 -1 90 -2
100 -19 172 -45 192 -178 376 -360 499 -107 73 -198 110 -386 158 -16 4 -797
8 -1735 9 -1411 2 -1718 0 -1781 -12z"/>
<path d="M12699 21195 c-63 -23 -114 -61 -212 -161 -79 -79 -120 -134 -234
-311 -76 -118 -145 -226 -154 -241 -9 -15 -182 -283 -384 -597 -202 -313 -375
-582 -384 -597 -25 -42 -506 -790 -680 -1058 -37 -58 -109 -169 -159 -247
l-91 -142 134 -188 c74 -103 139 -195 145 -203 6 -8 254 -355 550 -770 297
-415 561 -785 586 -822 26 -37 52 -72 58 -77 8 -7 825 -11 2374 -11 2635 -2
2425 -7 2497 67 85 87 47 244 -119 493 -44 66 -222 306 -236 320 -3 3 -17 21
-30 40 -14 19 -31 42 -38 50 -8 8 -61 78 -119 155 -59 77 -141 185 -183 240
-42 55 -111 145 -153 200 -43 55 -122 159 -177 230 -55 72 -139 182 -188 245
-49 63 -151 196 -228 296 -113 148 -608 787 -715 924 -85 110 -257 331 -276
356 -24 32 -201 261 -238 309 -13 17 -60 77 -105 135 -45 58 -92 119 -105 135
-13 17 -165 215 -339 440 -453 588 -464 601 -542 680 -100 101 -182 136 -255
110z"/>
<path d="M3033 20398 c-171 -17 -338 -111 -437 -247 -61 -83 -94 -161 -122
-286 -6 -26 -8 -4384 -2 -4390 2 -3 34 41 71 98 37 56 72 109 77 117 11 15 89
134 349 530 74 113 221 336 326 495 105 160 240 364 300 455 59 91 147 224
194 295 47 72 90 137 96 146 5 9 22 34 36 55 34 50 320 485 414 629 40 61 152
232 250 380 155 234 241 365 476 723 l48 73 -3 197 c-3 218 -15 282 -68 387
-89 177 -274 312 -464 340 -65 10 -1449 12 -1541 3z"/>
<path d="M17663 19728 c-137 -51 -206 -215 -146 -348 15 -35 172 -197 672
-697 447 -447 650 -656 645 -665 -8 -14 -222 -304 -380 -518 -701 -946 -934
-1268 -945 -1310 -20 -70 -16 -142 12 -197 29 -56 92 -107 152 -124 58 -17
148 -14 190 6 60 28 72 43 322 385 28 38 93 126 145 197 52 70 137 187 189
258 52 72 99 135 104 140 4 6 82 111 172 235 91 124 171 234 179 245 8 11 58
79 111 150 52 72 103 140 113 153 l17 23 170 -171 170 -170 1 -633 c1 -616 1
-633 21 -677 59 -129 208 -188 341 -135 52 21 124 99 140 153 9 28 12 210 12
663 l0 624 168 168 c92 92 172 167 177 167 6 -1 30 -29 55 -65 25 -35 180
-246 345 -470 165 -224 354 -480 420 -570 183 -249 439 -595 450 -609 25 -30
84 -65 127 -74 208 -43 371 135 304 334 -11 33 -86 143 -227 334 -115 157
-216 294 -224 305 -8 11 -63 85 -123 165 -59 80 -195 264 -302 410 -285 387
-349 474 -357 485 -47 60 -93 126 -93 132 0 4 291 298 646 653 549 548 650
653 670 698 61 135 7 285 -125 344 -55 25 -151 27 -206 3 -29 -12 -260 -237
-872 -848 l-833 -832 0 744 c0 541 -3 754 -12 783 -6 22 -29 59 -50 83 -126
143 -352 109 -431 -65 -20 -44 -21 -60 -21 -793 l0 -748 -826 825 c-554 553
-839 831 -867 845 -59 30 -136 33 -200 9z"/>
<path d="M24217 19744 c-1 -1 -47 -5 -102 -8 -447 -31 -854 -224 -1200 -571
-189 -189 -323 -388 -426 -630 -29 -69 -83 -242 -93 -300 -3 -16 -8 -40 -10
-52 -3 -11 -7 -43 -11 -70 -4 -26 -9 -59 -12 -73 -9 -45 -11 -383 -3 -445 5
-33 11 -82 15 -109 41 -322 190 -650 419 -923 320 -383 750 -628 1211 -689
181 -24 449 -23 590 1 193 34 314 68 461 131 212 90 462 257 511 342 56 94 32
237 -51 310 -64 56 -94 67 -181 67 -75 0 -83 -2 -130 -34 -167 -114 -217 -146
-289 -180 -199 -96 -365 -134 -601 -135 -277 -2 -424 29 -655 137 -14 6 -49
26 -78 44 -29 18 -55 33 -58 33 -2 0 -10 4 -17 10 -7 5 -46 36 -87 69 -303
239 -494 561 -536 906 -4 28 -8 53 -11 57 -6 11 -5 275 2 333 25 212 93 415
194 575 130 207 346 412 553 524 130 70 323 134 458 151 87 11 318 14 390 4
107 -15 122 -17 202 -39 179 -47 324 -118 486 -239 85 -63 157 -91 219 -85
103 10 201 91 223 185 15 63 9 142 -15 192 -46 97 -401 320 -648 406 -94 33
-269 75 -352 86 -27 3 -70 8 -95 11 -42 6 -268 12 -273 8z"/>
<path d="M26335 19740 c-84 -18 -166 -93 -190 -173 -13 -44 -15 -269 -15
-1767 0 -1930 -6 -1785 75 -1866 55 -55 104 -76 180 -77 105 -1 194 55 237
150 22 48 23 51 24 678 l1 630 167 168 c93 92 171 167 176 167 4 0 60 -73 126
-162 65 -90 152 -209 193 -265 42 -55 85 -114 96 -129 11 -15 45 -60 75 -101
30 -40 66 -89 80 -109 14 -19 34 -47 46 -62 11 -15 155 -209 319 -432 361
-492 354 -483 409 -508 176 -83 371 42 370 238 0 75 -12 102 -90 208 -30 39
-78 105 -107 145 -30 39 -115 155 -190 257 -76 102 -200 271 -277 375 -77 105
-149 201 -159 215 -11 14 -81 109 -156 210 -74 102 -181 247 -238 323 -56 76
-108 146 -115 157 -12 16 47 79 638 671 388 390 660 670 673 694 31 60 30 164
-3 229 -44 86 -127 138 -224 139 -119 1 -80 36 -979 -863 -451 -451 -823 -820
-826 -820 -3 0 -6 336 -6 748 0 744 -1 747 -22 787 -58 110 -176 169 -288 145z"/>
<path d="M10085 14646 c-60 -18 -116 -60 -158 -116 -20 -27 -37 -52 -37 -56 0
-3 -6 -20 -14 -37 -21 -47 -691 -1694 -808 -1987 -16 -41 -34 -84 -38 -95 -12
-28 -87 -212 -305 -750 -75 -184 -88 -218 -111 -270 -7 -16 -31 -77 -53 -135
-23 -58 -46 -114 -51 -125 -5 -11 -20 -47 -34 -80 -13 -33 -59 -145 -102 -250
-75 -183 -78 -193 -78 -270 0 -70 3 -87 29 -134 71 -130 226 -188 378 -141
115 36 151 85 262 360 48 118 93 229 100 245 7 17 41 100 75 185 34 85 67 169
75 185 7 17 79 194 160 395 239 589 395 974 404 995 5 11 28 67 51 125 23 58
48 119 55 135 7 17 22 55 34 85 12 30 26 64 31 75 5 11 57 139 116 285 58 146
107 266 108 268 2 1 41 -94 89 -210 369 -913 511 -1263 594 -1468 31 -74 63
-155 73 -180 9 -25 56 -139 103 -255 47 -115 128 -318 181 -450 53 -132 101
-249 106 -260 5 -11 19 -45 31 -75 12 -30 27 -68 34 -85 7 -16 29 -68 47 -115
58 -143 102 -198 191 -235 60 -25 159 -27 233 -4 83 26 160 98 188 177 32 90
21 150 -63 357 -41 99 -94 230 -118 290 -25 61 -49 119 -53 130 -5 11 -29 70
-53 130 -25 61 -70 171 -100 245 -31 74 -89 218 -130 320 -41 102 -139 343
-217 535 -79 193 -151 373 -162 400 -10 28 -25 64 -32 80 -8 17 -53 127 -100
245 -48 118 -91 224 -96 235 -5 11 -50 121 -100 245 -151 374 -191 474 -205
505 -7 17 -41 100 -75 185 -34 85 -73 177 -87 203 -31 62 -93 124 -150 149
-54 24 -162 31 -218 14z"/>
<path d="M13014 14645 c-99 -31 -172 -103 -204 -200 -11 -33 -13 -409 -13
-2015 0 -1086 3 -1993 7 -2015 16 -85 86 -168 175 -207 33 -15 69 -21 126 -22
127 -1 183 33 307 184 20 25 146 180 280 345 134 165 371 458 528 650 156 193
352 433 434 535 82 102 172 212 199 245 57 70 63 77 273 335 154 190 282 348
643 792 l176 218 5 -1543 5 -1542 21 -46 c50 -108 157 -173 284 -173 56 0 88
6 125 23 62 27 130 92 158 151 l22 45 0 2015 c0 1977 0 2016 -19 2055 -30 60
-54 90 -100 123 -126 89 -303 74 -408 -35 -44 -46 -111 -126 -244 -293 -54
-69 -101 -127 -104 -130 -6 -5 -58 -68 -245 -300 -179 -221 -336 -414 -354
-435 -9 -11 -63 -78 -121 -150 -58 -71 -112 -139 -121 -150 -18 -21 -360 -442
-416 -511 -69 -86 -227 -281 -258 -319 -19 -22 -57 -70 -87 -106 -213 -265
-253 -315 -258 -319 -3 -3 -24 -27 -45 -55 -22 -27 -42 -52 -45 -55 -3 -3 -32
-39 -65 -80 -33 -41 -67 -84 -76 -95 -10 -11 -50 -61 -91 -111 -40 -50 -77
-92 -83 -92 -6 -1 -10 552 -10 1535 l-1 1538 -26 51 c-32 60 -94 119 -156 146
-55 25 -161 31 -218 13z"/>
<path d="M19364 14645 c-79 -25 -153 -85 -188 -154 -8 -14 -57 -134 -110 -266
-53 -132 -103 -253 -111 -270 -7 -16 -50 -122 -95 -235 -89 -224 -91 -229
-113 -280 -8 -19 -68 -165 -132 -325 -222 -547 -256 -630 -265 -650 -5 -11
-61 -150 -125 -310 -64 -159 -122 -303 -130 -320 -7 -16 -41 -100 -75 -185
-34 -85 -68 -168 -76 -184 -8 -16 -14 -33 -14 -38 0 -4 -9 -27 -19 -51 -11
-23 -68 -161 -126 -307 -59 -146 -111 -271 -115 -279 -4 -8 -25 -16 -46 -18
-109 -9 -212 -80 -255 -175 l-23 -53 -1 -488 c-1 -538 -2 -532 62 -619 25 -35
52 -56 103 -82 63 -31 76 -34 147 -32 88 3 161 33 217 89 86 86 92 119 91 477
l-1 295 1483 -1 c816 0 1486 -4 1490 -7 3 -4 7 -147 7 -319 l2 -313 26 -51
c30 -57 87 -113 150 -145 61 -32 193 -33 260 -2 72 33 134 96 159 161 21 55
21 70 21 527 0 470 -1 503 -23 560 -35 88 -150 170 -249 177 l-44 4 -39 94
c-21 52 -43 104 -47 115 -4 11 -15 36 -23 55 -8 19 -68 166 -133 325 -64 160
-157 389 -206 510 -50 121 -123 301 -163 400 -191 471 -366 902 -375 920 -5
11 -48 117 -96 235 -47 118 -126 312 -174 430 -48 118 -122 303 -165 410 -104
259 -152 329 -252 369 -44 18 -160 21 -209 6z m145 -1238 c23 -59 96 -239 162
-400 66 -161 122 -299 124 -307 4 -15 107 -267 124 -305 5 -11 33 -78 61 -150
29 -71 58 -143 65 -160 7 -16 32 -77 55 -135 23 -58 51 -127 62 -155 26 -63
38 -92 73 -180 15 -38 31 -79 36 -90 13 -30 102 -249 170 -420 34 -82 67 -163
74 -180 30 -70 55 -134 55 -142 0 -4 -503 -8 -1119 -8 l-1118 0 12 35 c14 38
58 146 80 195 7 17 50 122 95 235 45 113 88 219 95 235 8 17 55 131 105 255
180 446 322 796 335 825 7 17 41 100 75 185 114 283 172 425 185 455 16 38
110 270 125 309 6 16 14 25 19 20 4 -5 27 -58 50 -117z"/>
<path d="M22547 14645 c-92 -24 -184 -111 -208 -198 -17 -60 -17 -3994 0
-4053 23 -84 102 -164 192 -194 44 -15 172 -17 1466 -16 l1418 1 57 28 c208
102 233 376 45 506 -87 60 -31 57 -1354 57 -1072 -1 -1213 1 -1214 14 -4 54
-3 1330 1 1331 3 1 406 2 895 3 l890 1 56 26 c71 33 125 87 157 157 21 46 24
65 20 126 -8 118 -67 203 -178 255 l-55 26 -890 1 c-489 1 -892 2 -895 3 -4 1
-5 1299 -1 1336 1 7 418 10 1229 10 l1227 1 63 29 c233 106 235 418 4 532
l-57 28 -1410 1 c-1100 1 -1421 -1 -1458 -11z"/>
<path d="M26582 14641 c-89 -30 -156 -96 -188 -182 -14 -40 -16 -227 -17
-2041 l0 -1997 32 -65 c34 -70 78 -113 151 -147 63 -30 186 -31 251 -2 81 36
154 115 174 188 5 17 9 312 10 657 0 345 3 630 6 633 3 3 172 7 375 9 384 4
417 6 549 32 163 33 405 131 510 206 299 216 481 427 591 690 34 78 83 247 90
303 28 230 25 361 -12 539 -55 264 -203 535 -396 723 -111 109 -134 128 -247
204 -216 144 -452 229 -711 258 -41 5 -310 8 -596 9 -466 0 -527 -2 -572 -17z
m1128 -585 c347 -45 653 -290 758 -609 35 -105 44 -168 44 -281 -1 -85 -8
-142 -23 -192 -5 -17 -12 -42 -14 -54 -7 -39 -70 -164 -115 -230 -114 -168
-309 -308 -508 -365 -127 -36 -155 -38 -516 -39 -300 -1 -329 0 -335 16 -4 13
-7 1733 -2 1758 1 8 647 4 711 -4z"/>
<path d="M314 8890 c-12 -5 -25 -13 -29 -19 -12 -21 -16 -61 -6 -79 5 -9 93
-100 195 -202 102 -102 186 -189 186 -193 0 -5 -88 -128 -195 -274 -127 -173
-195 -274 -195 -290 0 -33 42 -73 77 -73 16 0 39 10 53 24 14 13 104 132 200
265 l175 240 50 -50 50 -49 1 -178 c2 -223 0 -208 24 -232 28 -28 75 -26 105
4 23 23 24 27 23 214 l0 190 50 51 49 50 159 -215 c88 -118 170 -232 184 -252
45 -64 102 -79 144 -36 33 33 20 74 -63 184 -212 285 -311 421 -311 425 0 3
88 93 195 200 177 177 195 199 195 230 0 24 -7 39 -26 54 -55 43 -60 39 -326
-226 -175 -175 -248 -242 -249 -228 0 11 0 107 0 214 0 106 -4 203 -9 215 -22
58 -116 58 -135 0 -6 -17 -10 -124 -10 -238 1 -113 -1 -206 -3 -206 -2 0 -114
110 -249 245 -250 249 -258 256 -309 235z"/>
<path d="M1783 8888 c-13 -6 -26 -20 -30 -32 -12 -39 -9 -1026 4 -1057 13 -31
48 -45 87 -35 16 4 105 110 282 338 142 183 260 335 263 338 3 3 31 38 60 78
30 39 58 72 61 72 3 0 5 -175 5 -389 l0 -390 24 -25 c29 -31 69 -34 102 -7
l24 19 0 530 c0 581 3 556 -61 568 -42 8 -52 0 -135 -106 -141 -180 -340 -437
-447 -577 -65 -83 -119 -152 -122 -152 -3 -1 -5 179 -5 400 l0 401 -24 19
c-26 21 -54 23 -88 7z"/>
<path d="M3200 8886 c-20 -11 -41 -56 -109 -233 -46 -120 -90 -231 -97 -248
-55 -125 -216 -555 -215 -573 2 -39 20 -61 56 -68 52 -9 78 13 108 93 36 95
206 534 216 558 5 11 25 60 43 108 l34 88 17 -38 c9 -21 82 -207 162 -413 79
-206 152 -381 162 -387 28 -21 72 -15 99 12 30 30 28 53 -9 147 -30 74 -112
286 -187 478 -189 488 -190 490 -234 490 -12 -1 -32 -7 -46 -14z"/>
<path d="M3825 8875 l-25 -24 0 -521 0 -521 25 -25 c19 -19 34 -24 57 -22 33
3 35 5 181 190 12 15 130 167 262 336 l240 309 5 -399 5 -400 24 -19 c32 -26
73 -24 99 4 22 23 22 24 22 541 1 451 -1 522 -15 542 -18 29 -58 40 -89 26
-12 -5 -103 -114 -202 -242 -98 -128 -184 -237 -189 -244 -6 -6 -35 -43 -65
-82 -30 -39 -89 -115 -130 -168 l-75 -97 -5 401 -5 402 -24 19 c-32 26 -67 24
-96 -6z"/>
<path d="M4859 8881 l-24 -19 -2 -527 -2 -527 24 -24 24 -24 466 0 c410 0 465
-2 465 -15 0 -9 -9 -40 -19 -71 -23 -64 -20 -92 11 -116 47 -36 98 -15 126 51
29 67 49 178 43 243 -2 28 -42 58 -76 58 l-31 0 1 458 c0 251 -3 469 -8 483
-16 50 -83 64 -122 25 l-24 -24 0 -388 c0 -214 0 -426 -1 -471 l0 -83 -143 0
-143 0 1 458 c0 251 -3 469 -8 484 -10 31 -53 52 -91 42 -55 -14 -55 -10 -55
-473 0 -234 0 -445 -1 -468 l0 -43 -143 0 -143 0 0 458 c0 251 -3 469 -7 483
-12 46 -78 63 -118 30z"/>
<path d="M6125 8888 c-11 -6 -25 -18 -30 -25 -7 -9 -10 -195 -9 -526 1 -282 2
-518 3 -524 0 -7 10 -22 21 -33 28 -28 76 -26 103 4 22 23 23 30 22 241 0 185
2 218 15 224 8 4 123 6 254 6 l240 -1 1 -228 c1 -227 1 -228 24 -247 30 -24
72 -24 102 0 l24 19 0 527 c0 492 -1 528 -18 546 -36 38 -97 36 -119 -4 -8
-15 -13 -89 -14 -232 -1 -115 -2 -215 -3 -220 -1 -8 -440 -13 -496 -6 -6 1
-10 84 -10 225 -1 224 -1 225 -24 245 -27 23 -56 26 -86 9z"/>
<path d="M7436 8884 c-218 -52 -393 -240 -427 -458 -31 -198 30 -379 175 -513
119 -112 234 -154 406 -149 168 5 286 59 399 182 53 58 132 184 115 184 -3 0
-2 6 4 13 29 34 39 240 16 327 -51 197 -225 370 -417 414 -74 17 -197 17 -271
0z m249 -151 c104 -30 201 -109 259 -212 54 -97 58 -253 9 -361 -36 -79 -118
-167 -189 -203 -94 -47 -217 -58 -325 -27 -61 17 -154 85 -199 144 -53 70 -80
141 -86 227 -22 287 254 510 531 432z"/>
<path d="M9495 8885 c-287 -61 -486 -356 -435 -647 22 -126 68 -217 159 -308
109 -112 221 -161 377 -166 115 -4 181 9 281 57 85 40 133 89 127 126 -11 63
-72 86 -128 48 -95 -64 -189 -91 -291 -82 -226 20 -389 207 -379 437 5 139 76
261 196 336 140 89 337 80 475 -22 41 -31 78 -30 110 2 51 51 10 115 -114 174
-116 56 -251 72 -378 45z"/>
<path d="M10133 8878 c-34 -36 -34 -77 -1 -108 20 -18 35 -20 175 -20 84 0
153 -3 154 -7 0 -5 1 -219 2 -476 l2 -469 24 -19 c13 -10 35 -19 50 -19 31 0
70 32 72 58 1 9 2 222 3 472 l1 455 155 3 c142 2 156 4 177 24 31 29 31 77 0
106 -23 22 -27 22 -408 22 l-386 0 -20 -22z"/>
<path d="M11100 8880 c-11 -11 -21 -26 -21 -32 -1 -7 -3 -240 -4 -518 -2 -528
-1 -548 40 -564 31 -11 61 -6 83 14 26 25 24 7 27 200 2 85 3 157 4 160 1 3
43 5 94 4 141 0 232 31 308 108 80 81 111 153 114 263 3 131 -73 268 -181 329
-82 46 -136 56 -296 56 -135 0 -150 -2 -168 -20z m367 -156 c176 -83 166 -334
-16 -412 -38 -16 -186 -24 -211 -11 -13 6 -15 40 -14 221 1 117 2 217 3 221 1
4 43 7 94 6 74 -1 102 -6 144 -25z"/>
<path d="M12259 8876 c-101 -29 -160 -66 -245 -150 -112 -112 -164 -237 -164
-396 0 -245 155 -463 389 -543 73 -26 244 -32 321 -11 136 36 265 130 337 247
67 108 80 148 89 273 18 248 -133 479 -372 570 -97 37 -247 42 -355 10z m256
-138 c16 -5 35 -10 40 -12 36 -8 116 -59 159 -102 61 -61 92 -117 111 -196 60
-259 -123 -503 -386 -514 -177 -7 -326 83 -402 243 -30 63 -32 76 -32 173 0
97 2 110 32 172 36 76 118 165 183 198 85 43 221 61 295 38z"/>
<path d="M13121 8876 l-25 -26 0 -498 c-1 -273 2 -512 5 -530 13 -61 76 -82
122 -39 14 12 152 186 307 387 156 201 292 377 304 392 12 15 24 27 27 27 3 1
5 -174 5 -389 l0 -390 24 -25 c30 -32 73 -33 104 -2 l23 23 -1 528 -1 528 -24
19 c-13 10 -32 19 -42 19 -26 0 -63 -19 -76 -38 -9 -15 -457 -594 -484 -626
-5 -6 -39 -49 -74 -94 -59 -76 -65 -81 -65 -55 0 15 -1 193 -1 395 0 410 1
403 -69 414 -29 5 -39 1 -59 -20z"/>
<path d="M14165 8888 c-28 -16 -35 -28 -35 -65 0 -20 8 -40 22 -53 20 -18 35
-20 175 -20 84 0 154 -3 154 -7 1 -5 2 -215 3 -468 1 -337 5 -466 14 -482 13
-24 60 -38 92 -28 43 14 44 27 46 510 1 253 2 463 3 468 0 4 70 7 154 7 140 0
155 2 175 20 35 32 33 74 -4 108 l-25 22 -377 0 c-262 -1 -383 -4 -397 -12z"/>
<path d="M15140 8893 c-45 -18 -44 -7 -45 -542 0 -278 3 -519 7 -536 15 -55
12 -55 400 -55 l359 0 24 24 c30 30 26 82 -7 108 -21 16 -53 18 -325 18 -262
0 -303 2 -304 15 0 19 0 210 0 278 l1 52 215 -1 c191 0 219 2 245 18 25 15 30
24 30 58 0 32 -5 43 -27 57 -23 15 -54 18 -239 18 -117 0 -216 3 -219 7 -6 5
-9 190 -6 316 l1 22 304 0 c282 0 305 1 327 19 31 25 30 88 -1 113 -20 17 -51
18 -374 17 -193 0 -358 -3 -366 -6z"/>
<path d="M16420 8878 c-11 -12 -29 -47 -41 -77 -11 -31 -42 -112 -69 -181 -51
-130 -135 -345 -239 -612 -33 -87 -61 -167 -61 -178 0 -31 44 -70 78 -70 17 0
37 9 48 23 11 12 76 166 144 342 67 176 131 338 140 360 10 22 23 57 30 78 6
20 15 37 19 37 4 0 75 -174 157 -386 82 -213 157 -399 166 -415 21 -34 58 -46
98 -29 49 20 49 60 1 182 -22 56 -101 261 -176 453 -183 472 -183 471 -211
484 -37 17 -61 13 -84 -11z"/>
<path d="M17060 8878 c-11 -12 -21 -24 -21 -27 -1 -3 -3 -235 -4 -516 -2 -549
-1 -558 49 -571 13 -3 111 -4 217 -2 189 3 196 4 251 31 66 33 121 90 154 161
81 178 -21 385 -216 442 -14 4 -86 8 -160 10 -74 1 -137 2 -140 3 -3 1 -5 97
-4 214 0 219 -5 257 -41 271 -32 12 -64 6 -85 -16z m421 -638 c101 -52 132
-173 66 -262 -41 -55 -89 -69 -233 -66 l-129 3 0 155 c-1 85 1 162 3 170 3 13
25 15 136 14 83 -1 142 -7 157 -14z"/>
<path d="M17860 8880 l-25 -19 -1 -518 c-1 -559 0 -566 51 -579 36 -9 73 3 87
29 8 15 13 87 14 232 1 116 2 215 3 220 1 8 398 13 491 6 13 -1 15 -33 15
-225 l0 -224 24 -21 c40 -35 94 -24 118 24 7 15 12 1005 4 1047 -3 17 -47 48
-67 48 -75 0 -81 -23 -80 -278 1 -134 -3 -212 -9 -213 -26 -3 -472 -5 -485 -1
-13 3 -15 32 -15 210 1 114 -2 218 -7 231 -18 51 -73 66 -118 31z"/>
<path d="M19159 8878 c-12 -13 -55 -112 -96 -218 -41 -107 -78 -204 -83 -215
-42 -90 -230 -595 -230 -615 1 -36 23 -60 62 -66 53 -9 71 15 139 186 33 85
62 160 63 167 1 7 5 16 9 20 13 12 357 10 368 -3 5 -6 36 -83 70 -170 33 -87
70 -169 81 -181 29 -31 72 -30 104 3 31 30 28 59 -11 149 -14 31 -25 60 -25
65 0 6 -9 29 -19 53 -10 23 -45 110 -76 192 -32 83 -66 169 -76 192 -11 23
-19 44 -19 47 0 6 -84 226 -100 261 -4 11 -16 40 -25 65 -23 64 -38 80 -79 87
-29 4 -39 1 -57 -19z m108 -413 c28 -71 53 -139 57 -150 6 -19 1 -20 -115 -20
-116 0 -120 0 -116 20 11 47 112 294 118 287 3 -4 28 -65 56 -137z"/>
<path d="M20087 8889 c-97 -23 -187 -98 -233 -195 -25 -51 -29 -71 -29 -144 0
-113 31 -181 116 -261 l60 -57 -112 -178 c-62 -98 -115 -190 -119 -204 -10
-34 14 -78 47 -86 54 -14 70 2 207 221 l132 210 107 3 107 3 0 -196 c0 -195 0
-196 25 -220 31 -32 74 -33 104 -1 l23 24 -1 493 c0 272 0 507 0 522 -1 16
-12 39 -26 52 -24 25 -26 25 -197 24 -95 -1 -190 -5 -211 -10z m283 -339 l0
-200 -117 1 c-129 1 -165 10 -213 52 -84 76 -88 211 -7 288 48 46 94 59 220
59 l117 0 0 -200z"/>
<path d="M21463 8888 c-13 -6 -25 -20 -29 -31 -3 -11 -6 -251 -6 -534 l0 -514
23 -25 c30 -32 72 -32 105 1 21 21 25 34 24 73 -1 26 -1 110 -1 188 l1 140 45
47 c24 26 48 47 53 47 5 0 24 -21 43 -47 18 -27 37 -52 42 -58 4 -5 73 -99
153 -208 103 -139 154 -199 171 -203 35 -9 72 11 88 49 17 40 28 21 -195 323
-96 130 -178 243 -183 250 -5 8 59 79 189 209 l196 197 -5 41 c-6 43 -23 59
-71 65 -26 3 -54 -21 -277 -245 l-249 -247 -1 109 c0 61 0 160 1 221 1 93 -2
114 -17 132 -21 26 -69 36 -100 20z"/>
<path d="M22705 8880 c-184 -51 -330 -192 -390 -377 -88 -268 36 -559 290
-683 99 -49 114 -52 245 -55 92 -3 115 0 185 24 102 35 155 68 232 148 192
197 213 514 50 728 -81 106 -196 185 -312 215 -88 23 -220 23 -300 0z m264
-147 c169 -44 297 -204 305 -382 5 -126 -38 -235 -129 -323 -90 -86 -172 -117
-303 -114 -82 2 -98 6 -166 39 -81 40 -156 113 -190 183 -10 21 -24 48 -30 59
-6 11 -12 64 -13 117 -3 115 16 182 73 259 108 147 277 208 453 162z"/>
<path d="M23843 8878 c-16 -17 -51 -131 -132 -423 -61 -220 -118 -424 -126
-453 -33 -108 -44 -161 -40 -184 10 -50 77 -75 119 -43 17 13 83 226 151 485
23 91 66 244 72 260 6 16 18 -17 54 -150 19 -71 28 -102 63 -230 102 -376 104
-380 165 -380 44 0 67 36 100 155 16 61 44 160 61 220 18 61 36 128 41 150 5
22 16 60 24 85 7 25 21 72 31 105 15 53 18 57 25 35 6 -20 48 -169 99 -355 5
-16 18 -64 30 -105 11 -41 22 -82 25 -91 19 -85 50 -167 67 -181 28 -25 70
-22 96 5 35 37 39 16 -98 512 -17 61 -35 124 -40 140 -8 28 -30 108 -36 130
-28 112 -80 285 -91 302 -9 13 -30 25 -50 29 -58 11 -75 -17 -126 -201 -25
-88 -48 -173 -52 -190 -5 -16 -9 -34 -11 -40 -20 -68 -36 -123 -39 -135 -27
-106 -49 -186 -54 -192 -3 -4 -44 129 -89 295 -115 418 -114 413 -132 437 -8
11 -31 23 -50 26 -28 5 -39 1 -57 -18z"/>
<path d="M24931 8876 l-23 -24 0 -521 -1 -522 23 -24 c28 -30 69 -32 101 -6
l24 19 2 439 c1 241 2 455 3 476 l0 37 253 0 254 0 1 -447 c0 -247 1 -460 1
-475 2 -61 81 -89 125 -45 l23 23 -1 528 -1 528 -24 19 c-22 18 -44 19 -380
19 l-358 0 -22 -24z"/>
<path d="M26233 8878 c-12 -12 -65 -135 -118 -273 -53 -137 -105 -270 -115
-295 -55 -130 -180 -464 -180 -481 0 -28 44 -69 74 -69 46 0 71 39 140 215
l66 170 179 0 c99 0 182 -3 184 -5 2 -3 34 -83 71 -178 68 -174 87 -202 132
-202 34 0 74 37 74 69 0 14 -32 108 -70 206 -39 99 -93 239 -121 310 -28 72
-66 168 -84 215 -18 47 -52 135 -75 195 -24 61 -48 116 -55 123 -6 7 -27 15
-46 18 -27 5 -38 1 -56 -18z m167 -577 c0 -3 -53 -6 -117 -6 -112 0 -118 1
-115 20 3 17 71 198 103 275 10 22 16 10 70 -129 32 -84 59 -156 59 -160z"/>
<path d="M26877 8886 c-10 -7 -21 -27 -25 -42 -4 -16 -7 -255 -7 -531 l1 -502
24 -26 c30 -32 73 -33 104 -2 22 22 23 27 23 239 1 119 3 220 6 225 4 6 466
10 498 4 3 -1 5 -94 4 -208 0 -115 3 -219 7 -232 19 -54 83 -68 122 -26 l23
25 -1 526 -1 526 -24 19 c-40 33 -106 16 -118 -30 -4 -14 -7 -119 -7 -233 0
-115 -3 -209 -6 -209 -28 -7 -493 -2 -497 4 -3 5 -6 108 -7 228 -1 242 -2 245
-67 255 -21 3 -41 -1 -52 -10z"/>
<path d="M27783 8880 c-13 -11 -24 -24 -24 -28 -1 -4 -2 -236 -3 -516 -1 -375
2 -516 11 -537 13 -31 48 -45 87 -35 15 4 101 106 262 313 131 170 244 315
251 323 6 8 42 53 79 100 36 47 69 88 73 92 4 4 7 -166 6 -379 0 -276 3 -394
12 -414 22 -53 105 -51 127 2 10 23 12 150 12 545 l-1 516 -24 19 c-13 10 -33
19 -45 19 -23 0 -66 -25 -79 -46 -6 -10 -100 -133 -150 -194 -7 -9 -32 -42
-57 -75 -25 -33 -48 -62 -51 -65 -3 -3 -85 -108 -182 -234 -164 -211 -177
-225 -178 -195 0 19 -1 196 -1 395 -1 402 0 399 -68 410 -27 4 -40 1 -57 -16z"/>
<path d="M29105 8892 c-142 -32 -258 -169 -269 -317 -5 -60 12 -143 38 -193
18 -35 112 -132 127 -132 20 0 5 -29 -106 -206 -80 -127 -115 -193 -115 -214
0 -53 60 -87 109 -60 10 5 36 37 58 72 50 78 159 253 194 310 l25 43 107 3
c97 2 107 1 108 -15 0 -10 1 -101 2 -201 2 -180 2 -184 26 -203 45 -36 105
-18 119 37 4 16 7 258 6 538 l-1 509 -24 18 c-22 17 -42 19 -204 17 -99 0
-189 -3 -200 -6z m276 -154 c1 -18 1 -337 0 -366 -1 -23 -2 -23 -123 -21 -96
1 -131 5 -158 19 -122 62 -151 206 -64 309 47 57 92 71 227 71 87 0 117 -3
118 -12z"/>
</g>
</svg>
