<svg version="1.1" id="Layer_1" xmlns="http://www.w3.org/2000/svg" xmlns:xlink="http://www.w3.org/1999/xlink" x="0px" y="0px"
	 viewBox="0 0 84.8 74.8" width="84.8" height="74.8" xml:space="preserve">
<style type="text/css">
	.st0{fill:none;stroke:#A42829;stroke-width:2.8346;stroke-miterlimit:10;}
</style>
<path class="st0" d="M66,12.9L55.5,36.2c-1.1,2.5,0.6,5.5,3.3,5.5h21c2.7,0,4.4-2.9,3.3-5.5L72.5,12.9C71.2,10,67.3,10,66,12.9z"/>
<line class="st0" x1="69.2" y1="41.7" x2="69.2" y2="52.2"/>
<path class="st0" d="M69.2,73.4L69.2,73.4c-3.9,0-7-3.1-7-7V52.2h14v14.3C76.2,70.3,73.1,73.4,69.2,73.4z"/>
<polyline class="st0" points="57.9,52.2 28.4,52.2 28.4,72.7 57.9,72.7 "/>
<polyline class="st0" points="55.9,21.9 28.4,21.9 28.4,1.4 79.9,1.4 79.9,16.2 "/>
<g>
	<polyline class="st0" points="55.9,26.8 45.4,26.8 45.4,47.3 57.9,47.3 	"/>
	<rect x="1.4" y="26.8" class="st0" width="38.1" height="20.5"/>
</g>
</svg>