<svg version="1.1" id="Layer_1" xmlns="http://www.w3.org/2000/svg" xmlns:xlink="http://www.w3.org/1999/xlink" x="0px" y="0px"
	 viewBox="0 0 98.5 79.6" width="98.5" height="79.6" xml:space="preserve">
<style type="text/css">
	.st0{fill:none;stroke:#A42829;stroke-width:2.8346;stroke-miterlimit:10;}
</style>
<line class="st0" x1="2.8" y1="78.2" x2="95.6" y2="78.2"/>
<g>
	<polyline class="st0" points="16.3,78.2 16.3,58.9 34.7,58.9 34.7,78.2 	"/>
	<line class="st0" x1="16.3" y1="65.4" x2="34.7" y2="65.4"/>
	<line class="st0" x1="16.3" y1="71.8" x2="34.7" y2="71.8"/>
</g>
<g>
	<rect x="54.1" y="54.6" class="st0" width="10.3" height="23.6"/>
	<rect x="54.1" y="31.7" class="st0" width="10.3" height="13.1"/>
	<line class="st0" x1="54.1" y1="36.6" x2="64.3" y2="36.6"/>
	<rect x="71.8" y="31.7" class="st0" width="10.3" height="13.1"/>
	<line class="st0" x1="71.8" y1="36.6" x2="82.1" y2="36.6"/>
	<rect x="71.8" y="54.6" class="st0" width="10.3" height="13.1"/>
	<line class="st0" x1="71.8" y1="59.5" x2="82.1" y2="59.5"/>
</g>
<line class="st0" x1="64.3" y1="66.4" x2="60.8" y2="66.4"/>
<polyline class="st0" points="91.8,78.2 91.8,28.2 68.1,8.8 44.3,28.2 44.3,78.2 "/>
<polyline class="st0" points="44.3,58.9 25.5,43.5 6.6,58.9 6.6,78.2 "/>
<polyline class="st0" points="97.6,25.9 68.1,1.8 38.6,25.9 "/>
<polyline class="st0" points="44.3,51.9 25.5,36.5 0.9,56.6 "/>
<polyline class="st0" points="47.3,18.8 47.3,6.2 54.1,6.2 54.1,13.3 "/>
</svg>