<svg version="1.1" id="Layer_1" xmlns="http://www.w3.org/2000/svg" xmlns:xlink="http://www.w3.org/1999/xlink" x="0px" y="0px"
	 viewBox="0 0 85.1 82.5" width="85.1" height="82.5" xml:space="preserve">
<style type="text/css">
	.st0{fill:none;stroke:#A42829;stroke-width:2.8346;stroke-miterlimit:10;}
</style>
<path class="st0" d="M76.7,81H8.4c-3.8,0-7-3.2-7-7v0c0-3.8,3.1-7,7-7h68.3c3.8,0,7,3.1,7,7v0C83.7,77.9,80.5,81,76.7,81z"/>
<rect x="54.9" y="49.3" class="st0" width="17.8" height="17.8"/>
<circle class="st0" cx="17.5" cy="16.2" r="9.1"/>
<circle class="st0" cx="63.8" cy="10.5" r="9.1"/>
<circle class="st0" cx="30" cy="47.1" r="10.9"/>
<line class="st0" x1="22.6" y1="8.6" x2="50.8" y2="7.2"/>
<line class="st0" x1="23.3" y1="23.2" x2="50.5" y2="16.1"/>
<line class="st0" x1="9.7" y1="20.8" x2="20.8" y2="41.2"/>
<line class="st0" x1="33.3" y1="36.7" x2="22" y2="24.1"/>
<line class="st0" x1="19" y1="47.1" x2="19" y2="67"/>
<line class="st0" x1="40.9" y1="47.1" x2="40.9" y2="67"/>
<g>
	<line class="st0" x1="58.3" y1="17.8" x2="58.3" y2="26.5"/>
	<line class="st0" x1="69.3" y1="17.8" x2="69.3" y2="26.5"/>
</g>
<polyline class="st0" points="56,39.1 51,32.5 58.3,26.5 69.3,26.5 76.6,32.5 71.6,39.1 "/>
<g>
	<line class="st0" x1="9.4" y1="74" x2="11.9" y2="74"/>
	<line class="st0" x1="22.1" y1="74" x2="24.6" y2="74"/>
	<line class="st0" x1="34.9" y1="74" x2="37.4" y2="74"/>
	<line class="st0" x1="47.7" y1="74" x2="50.2" y2="74"/>
	<line class="st0" x1="60.4" y1="74" x2="62.9" y2="74"/>
	<line class="st0" x1="73.2" y1="74" x2="75.7" y2="74"/>
</g>
</svg>
