<svg version="1.1" id="Layer_1" xmlns="http://www.w3.org/2000/svg" xmlns:xlink="http://www.w3.org/1999/xlink" x="0px" y="0px"
	 viewBox="0 0 106.3 83" width="106.3" height="83" xml:space="preserve">
<style type="text/css">
	.st0{fill:none;stroke:#A42829;stroke-width:2.8346;stroke-miterlimit:10;}
</style>
<rect x="30.5" y="5.7" class="st0" width="10.9" height="10.9"/>
<path class="st0" d="M36,16.6v8.6c-3.8,0-7,3.1-7,7s3.1,7,7,7s7-3.1,7-7"/>
<polyline class="st0" points="39.5,33.7 36.6,31.6 11.7,49.6 "/>
<line class="st0" x1="61.5" y1="49.6" x2="44.3" y2="37.2"/>
<circle class="st0" cx="6.8" cy="55" r="5.3"/>
<circle class="st0" cx="6.8" cy="65.6" r="5.3"/>
<circle class="st0" cx="6.8" cy="76.3" r="5.3"/>
<path class="st0" d="M65,49.6c2.9,0,5.3,2.4,5.3,5.3s-2.4,5.3-5.3,5.3"/>
<path class="st0" d="M65,60.3c2.9,0,5.3,2.4,5.3,5.3S67.9,71,65,71"/>
<path class="st0" d="M65,71c2.9,0,5.3,2.4,5.3,5.3s-2.4,5.3-5.3,5.3"/>
<line class="st0" x1="65" y1="49.6" x2="6.8" y2="49.6"/>
<line class="st0" x1="65" y1="60.3" x2="6.8" y2="60.3"/>
<line class="st0" x1="65" y1="71" x2="6.8" y2="71"/>
<line class="st0" x1="65" y1="81.6" x2="6.8" y2="81.6"/>
<path class="st0" d="M62.8,37.3V8c0,0,15.2-0.2,21-6c5.8,5.8,21,6,21,6s0,18.5,0,29.3c0,13.4-21,22-21,22"/>
<polyline class="st0" points="94.7,22.7 83.2,34.2 77,28.1 "/>
</svg>
