<svg width="41" height="41" viewBox="0 0 41 41" fill="none" xmlns="http://www.w3.org/2000/svg">
<path d="M28.5859 19.0938H21.9062V12.4141C21.9062 12.2207 21.748 12.0625 21.5547 12.0625H19.4453C19.252 12.0625 19.0938 12.2207 19.0938 12.4141V19.0938H12.4141C12.2207 19.0938 12.0625 19.252 12.0625 19.4453V21.5547C12.0625 21.748 12.2207 21.9062 12.4141 21.9062H19.0938V28.5859C19.0938 28.7793 19.252 28.9375 19.4453 28.9375H21.5547C21.748 28.9375 21.9062 28.7793 21.9062 28.5859V21.9062H28.5859C28.7793 21.9062 28.9375 21.748 28.9375 21.5547V19.4453C28.9375 19.252 28.7793 19.0938 28.5859 19.0938Z" fill="black"/>
<path d="M20.5 0.8125C9.62793 0.8125 0.8125 9.62793 0.8125 20.5C0.8125 31.3721 9.62793 40.1875 20.5 40.1875C31.3721 40.1875 40.1875 31.3721 40.1875 20.5C40.1875 9.62793 31.3721 0.8125 20.5 0.8125ZM20.5 36.8477C11.4736 36.8477 4.15234 29.5264 4.15234 20.5C4.15234 11.4736 11.4736 4.15234 20.5 4.15234C29.5264 4.15234 36.8477 11.4736 36.8477 20.5C36.8477 29.5264 29.5264 36.8477 20.5 36.8477Z" fill="black"/>
</svg>
