<svg width="45" height="39" viewBox="0 0 45 39" fill="none" xmlns="http://www.w3.org/2000/svg">
<path d="M14.3447 8.63638L17.2957 16.588C18.4429 19.6309 18.8329 22.9906 18.4657 26.6671C18.1258 30.3332 17.1629 33.5924 15.5769 36.4447L8.21522 35.6039C8.42513 34.0845 8.62132 32.5703 8.80382 31.0612C8.98631 29.5521 9.01264 27.9611 8.8828 26.288C8.75297 24.6149 8.32631 22.8189 7.60284 20.8999L4.3937 12.3881L14.3447 8.63638ZM35.0691 0.822838L38.0201 8.77448C39.1673 11.8174 39.5573 15.177 39.1901 18.8535C38.8503 22.5197 37.8873 25.7789 36.3014 28.6311L28.9396 27.7903C29.1496 26.2709 29.3458 24.7567 29.5282 23.2477C29.7107 21.7386 29.7371 20.1475 29.6072 18.4744C29.4774 16.8013 29.0507 15.0053 28.3273 13.0864L25.1181 4.57458L35.0691 0.822838Z" fill="#9C2E29"/>
</svg>
