<svg width="50" height="50" viewBox="0 0 50 50" fill="none" xmlns="http://www.w3.org/2000/svg">
<path d="M26.4794 4.77083C26.2857 4.57557 26.0553 4.42058 25.8014 4.31481C25.5475 4.20904 25.2752 4.15459 25.0002 4.15459C24.7252 4.15459 24.4529 4.20904 24.199 4.31481C23.9451 4.42058 23.7147 4.57557 23.521 4.77083L4.77103 23.5208C4.57576 23.7145 4.42078 23.9449 4.31501 24.1988C4.20924 24.4527 4.15479 24.725 4.15479 25C4.15479 25.275 4.20924 25.5473 4.31501 25.8012C4.42078 26.0551 4.57576 26.2855 4.77103 26.4792C4.9657 26.6723 5.19656 26.825 5.45039 26.9287C5.70422 27.0324 5.97602 27.0849 6.2502 27.0833H8.33353V41.6667C8.33353 42.7717 8.77252 43.8315 9.55392 44.6129C10.3353 45.3943 11.3951 45.8333 12.5002 45.8333H37.5002C38.6053 45.8333 39.6651 45.3943 40.4465 44.6129C41.2279 43.8315 41.6669 42.7717 41.6669 41.6667V27.0833H43.7502C44.3027 27.0833 44.8326 26.8638 45.2233 26.4731C45.614 26.0824 45.8335 25.5525 45.8335 25C45.8351 24.7258 45.7826 24.454 45.6789 24.2002C45.5752 23.9464 45.4225 23.7155 45.2294 23.5208L26.4794 4.77083ZM12.5002 41.6667V21.6875L25.0002 9.1875L37.5002 21.6875V41.6667H12.5002Z" fill="#9C2E29"/>
<g clip-path="url(#clip0_12_806)">
<path d="M33.1904 26.2388C33.0056 25.8166 32.74 25.4346 32.4085 25.1144C32.0738 24.7903 31.6801 24.5331 31.2488 24.3568C30.7981 24.1722 30.3156 24.0778 29.8286 24.0787C29.336 24.0787 28.8579 24.1723 28.4083 24.3568C27.9769 24.5329 27.5832 24.7901 27.2486 25.1144C26.9168 25.4343 26.6511 25.8163 26.4667 26.2388C26.2766 26.6728 26.1788 27.1417 26.1793 27.6155V34.1954C26.1793 35.5885 25.0109 36.7219 23.5737 36.7219C22.1368 36.7219 20.9674 35.5882 20.9674 34.1954V31.1636H21.7909C21.9641 31.1636 22.104 31.0282 22.104 30.8604V29.738C23.0048 29.1985 23.605 28.2324 23.605 27.1306V25.8567H24.0586C24.231 25.8567 24.3711 25.7214 24.3711 25.5535V24.3712C24.3711 24.2311 24.2733 24.1129 24.1405 24.0785H22.3074V21.0811C22.3083 20.9139 22.1681 20.7779 21.9952 20.7779H21.5784C21.4052 20.7779 21.2656 20.9139 21.2656 21.0811V24.0785H19.6289V21.0811C19.6289 20.9139 19.4887 20.7779 19.316 20.7779H18.899C18.7266 20.7779 18.5864 20.9139 18.5864 21.0811V24.0785H16.7536C16.6881 24.0948 16.6298 24.1325 16.588 24.1855C16.5462 24.2386 16.5231 24.304 16.5225 24.3715V25.5535C16.5225 25.7214 16.6626 25.8567 16.8347 25.8567H17.2885V27.1306C17.2885 28.2327 17.8882 29.1982 18.7896 29.738V30.8604C18.7896 31.0282 18.9292 31.1636 19.1018 31.1636H19.9256V34.1954C19.9256 34.6729 20.0225 35.1361 20.2124 35.5724C20.397 35.9947 20.6626 36.3767 20.9943 36.6968C21.3289 37.0212 21.7226 37.2786 22.154 37.4549C22.6039 37.6395 23.0823 37.7327 23.5742 37.7327C24.0662 37.7327 24.5452 37.6395 24.9945 37.4549C25.426 37.2788 25.8196 37.0214 26.1539 36.6968C26.4861 36.3772 26.752 35.995 26.9361 35.5724C27.1261 35.1382 27.2239 34.6693 27.2232 34.1954V27.6155C27.2232 26.2227 28.3917 25.089 29.8291 25.089C31.2661 25.089 32.4354 26.223 32.4354 27.6155V37.7327H33.4772V27.6155C33.4772 27.1385 33.3803 26.6748 33.1904 26.2388Z" fill="#9C2E29"/>
</g>
<defs>
<clipPath id="clip0_12_806">
<rect width="18.0851" height="18.0851" fill="white" transform="translate(15.9575 20.2128)"/>
</clipPath>
</defs>
</svg>
