<svg width="53" height="42" viewBox="0 0 53 42" fill="none" xmlns="http://www.w3.org/2000/svg">
<path d="M23.85 3.9375C23.85 1.76285 25.6305 0 27.825 0H35.775C37.9695 0 39.75 1.76285 39.75 3.9375V15.75H43.0625V9.84375C43.0625 8.75273 43.9486 7.875 45.05 7.875C46.1514 7.875 47.0375 8.75273 47.0375 9.84375V15.75H49.025C51.2195 15.75 53 17.5137 53 19.6875V38.0625C53 40.2363 51.2195 42 49.025 42H27.825C25.6305 42 23.85 40.2363 23.85 38.0625V3.9375ZM29.15 9.1875C29.15 9.90938 29.7463 10.5 30.475 10.5H33.125C33.8538 10.5 34.45 9.90938 34.45 9.1875V6.5625C34.45 5.83734 33.8538 5.25 33.125 5.25H30.475C29.7463 5.25 29.15 5.83734 29.15 6.5625V9.1875ZM30.475 13.125C29.7463 13.125 29.15 13.7156 29.15 14.4375V17.0625C29.15 17.7844 29.7463 18.375 30.475 18.375H33.125C33.8538 18.375 34.45 17.7844 34.45 17.0625V14.4375C34.45 13.7156 33.8538 13.125 33.125 13.125H30.475ZM29.15 24.9375C29.15 25.6594 29.7463 26.25 30.475 26.25H33.125C33.8538 26.25 34.45 25.6594 34.45 24.9375V22.3125C34.45 21.5906 33.8538 21 33.125 21H30.475C29.7463 21 29.15 21.5906 29.15 22.3125V24.9375ZM43.725 21C42.9963 21 42.4 21.5906 42.4 22.3125V24.9375C42.4 25.6594 42.9963 26.25 43.725 26.25H46.375C47.1038 26.25 47.7 25.6594 47.7 24.9375V22.3125C47.7 21.5906 47.1038 21 46.375 21H43.725ZM42.4 32.8125C42.4 33.5344 42.9963 34.125 43.725 34.125H46.375C47.1038 34.125 47.7 33.5344 47.7 32.8125V30.1875C47.7 29.4656 47.1038 28.875 46.375 28.875H43.725C42.9963 28.875 42.4 29.4656 42.4 30.1875V32.8125ZM18.55 13.125C18.55 13.6172 18.4672 14.0273 18.3844 14.4375C20.0406 15.5859 21.2 17.5547 21.2 19.6875C21.2 23.3789 18.2188 26.25 14.575 26.25H13.25V39.375C13.25 40.8516 12.0078 42 10.6 42C9.10938 42 7.95 40.8516 7.95 39.375V26.25H6.625C2.89844 26.25 0 23.3789 0 19.6875C0 17.5547 1.07656 15.5859 2.73281 14.4375C2.65 14.0273 2.65 13.6172 2.65 13.125C2.65 8.77734 6.12813 5.25 10.6 5.25C14.9891 5.25 18.55 8.77734 18.55 13.125Z" fill="#9C2E29"/>
</svg>
