<svg width="51" height="51" viewBox="0 0 51 51" fill="none" xmlns="http://www.w3.org/2000/svg">
<path d="M46.75 27.625V44.625H42.5V40.375H35.2325C33.5963 44.115 29.8563 46.75 25.5 46.75C21.1437 46.75 17.4038 44.115 15.7675 40.375H8.5V44.625H4.25V27.625H8.5V31.875H15.7887C16.8512 29.4312 18.8062 27.4762 21.25 26.3925V23.375H17V19.125H34V23.375H29.75V26.3925C32.1938 27.4762 34.1488 29.4312 35.2113 31.875H42.5V27.625H46.75ZM36.125 4.25H14.875C13.7063 4.25 12.75 5.20625 12.75 6.375C12.75 7.54375 13.7063 8.5 14.875 8.5H21.25V10.625H23.375V17H27.625V10.625H29.75V8.5H36.125C37.2938 8.5 38.25 7.54375 38.25 6.375C38.25 5.20625 37.2938 4.25 36.125 4.25Z" fill="#9C2E29"/>
</svg>
