<svg width="47" height="47" viewBox="0 0 47 47" fill="none" xmlns="http://www.w3.org/2000/svg">
<path d="M6.854 3.91666C6.07493 3.91666 5.32777 4.22615 4.77688 4.77704C4.22599 5.32793 3.9165 6.07509 3.9165 6.85416V32.3125C3.9165 33.0916 4.22599 33.8387 4.77688 34.3896C5.32777 34.9405 6.07493 35.25 6.854 35.25H17.6248V28.7562C17.6248 27.262 18.2437 25.8382 19.3364 24.8199L27.4165 17.2745V16.6458C27.4165 15.8668 27.107 15.1196 26.5561 14.5687C26.0052 14.0178 25.2581 13.7083 24.479 13.7083H21.5415V6.85416C21.5415 6.07509 21.232 5.32793 20.6811 4.77704C20.1302 4.22615 19.3831 3.91666 18.604 3.91666H6.854ZM11.7498 11.2604C11.7498 11.65 11.5951 12.0235 11.3197 12.299C11.0442 12.5744 10.6706 12.7292 10.2811 12.7292C9.89155 12.7292 9.51797 12.5744 9.24252 12.299C8.96708 12.0235 8.81234 11.65 8.81234 11.2604C8.81234 10.8709 8.96708 10.4973 9.24252 10.2219C9.51797 9.94641 9.89155 9.79166 10.2811 9.79166C10.6706 9.79166 11.0442 9.94641 11.3197 10.2219C11.5951 10.4973 11.7498 10.8709 11.7498 11.2604ZM10.2811 18.6042C9.89155 18.6042 9.51797 18.4494 9.24252 18.174C8.96708 17.8985 8.81234 17.525 8.81234 17.1354C8.81234 16.7459 8.96708 16.3723 9.24252 16.0969C9.51797 15.8214 9.89155 15.6667 10.2811 15.6667C10.6706 15.6667 11.0442 15.8214 11.3197 16.0969C11.5951 16.3723 11.7498 16.7459 11.7498 17.1354C11.7498 17.525 11.5951 17.8985 11.3197 18.174C11.0442 18.4494 10.6706 18.6042 10.2811 18.6042ZM11.7498 23.0104C11.7498 23.4 11.5951 23.7735 11.3197 24.049C11.0442 24.3244 10.6706 24.4792 10.2811 24.4792C9.89155 24.4792 9.51797 24.3244 9.24252 24.049C8.96708 23.7735 8.81234 23.4 8.81234 23.0104C8.81234 22.6209 8.96708 22.2473 9.24252 21.9719C9.51797 21.6964 9.89155 21.5417 10.2811 21.5417C10.6706 21.5417 11.0442 21.6964 11.3197 21.9719C11.5951 22.2473 11.7498 22.6209 11.7498 23.0104ZM15.1769 12.7292C14.7874 12.7292 14.4138 12.5744 14.1384 12.299C13.8629 12.0235 13.7082 11.65 13.7082 11.2604C13.7082 10.8709 13.8629 10.4973 14.1384 10.2219C14.4138 9.94641 14.7874 9.79166 15.1769 9.79166C15.5665 9.79166 15.94 9.94641 16.2155 10.2219C16.4909 10.4973 16.6457 10.8709 16.6457 11.2604C16.6457 11.65 16.4909 12.0235 16.2155 12.299C15.94 12.5744 15.5665 12.7292 15.1769 12.7292ZM16.6457 17.1354C16.6457 17.525 16.4909 17.8985 16.2155 18.174C15.94 18.4494 15.5665 18.6042 15.1769 18.6042C14.7874 18.6042 14.4138 18.4494 14.1384 18.174C13.8629 17.8985 13.7082 17.525 13.7082 17.1354C13.7082 16.7459 13.8629 16.3723 14.1384 16.0969C14.4138 15.8214 14.7874 15.6667 15.1769 15.6667C15.5665 15.6667 15.94 15.8214 16.2155 16.0969C16.4909 16.3723 16.6457 16.7459 16.6457 17.1354ZM15.1769 24.4792C14.984 24.4792 14.7931 24.4412 14.6149 24.3674C14.4367 24.2936 14.2747 24.1854 14.1384 24.049C14.002 23.9126 13.8938 23.7507 13.82 23.5725C13.7462 23.3943 13.7082 23.2033 13.7082 23.0104C13.7082 22.8175 13.7462 22.6265 13.82 22.4483C13.8938 22.2702 14.002 22.1082 14.1384 21.9719C14.2747 21.8355 14.4367 21.7273 14.6149 21.6535C14.7931 21.5797 14.984 21.5417 15.1769 21.5417C15.5665 21.5417 15.94 21.6964 16.2155 21.9719C16.4909 22.2473 16.6457 22.6209 16.6457 23.0104C16.6457 23.4 16.4909 23.7735 16.2155 24.049C15.94 24.3244 15.5665 24.4792 15.1769 24.4792ZM33.6714 18.4847C33.0368 17.8925 32.2012 17.5631 31.3332 17.5631C30.4652 17.5631 29.6295 17.8925 28.9949 18.4847L20.672 26.2515C20.3283 26.5722 20.0542 26.9603 19.8669 27.3916C19.6796 27.8228 19.583 28.288 19.5832 28.7581V40.1458C19.5832 40.9249 19.8927 41.6721 20.4435 42.223C20.9944 42.7738 21.7416 43.0833 22.5207 43.0833H26.4373C27.2164 43.0833 27.9636 42.7738 28.5145 42.223C29.0654 41.6721 29.3748 40.9249 29.3748 40.1458V35.25H33.2915V40.1458C33.2915 40.9249 33.601 41.6721 34.1519 42.223C34.7028 42.7738 35.4499 43.0833 36.229 43.0833H40.1457C40.9247 43.0833 41.6719 42.7738 42.2228 42.223C42.7737 41.6721 43.0832 40.9249 43.0832 40.1458V28.7581C43.0833 28.288 42.9868 27.8228 42.7994 27.3916C42.6121 26.9603 42.3381 26.5722 41.9943 26.2515L33.6714 18.4847ZM30.9983 20.631C31.089 20.546 31.2088 20.4986 31.3332 20.4986C31.4576 20.4986 31.5773 20.546 31.668 20.631L39.991 28.3997C40.0399 28.4457 40.079 28.5012 40.1056 28.5628C40.1322 28.6245 40.1458 28.691 40.1457 28.7581V40.1458H36.229V35.25C36.229 34.4709 35.9195 33.7238 35.3686 33.1729C34.8177 32.622 34.0706 32.3125 33.2915 32.3125H29.3748C28.5958 32.3125 27.8486 32.622 27.2977 33.1729C26.7468 33.7238 26.4373 34.4709 26.4373 35.25V40.1458H22.5207V28.7581C22.5208 28.6908 22.5347 28.6243 22.5617 28.5626C22.5886 28.5009 22.628 28.4455 22.6773 28.3997L31.0003 20.631H30.9983ZM18.1144 3.91666H7.34359H18.1144Z" fill="#9C2E29"/>
</svg>
