<svg width="50" height="57" viewBox="0 0 50 57" fill="none" xmlns="http://www.w3.org/2000/svg">
<path d="M8.149 16.062H14.209L14.156 19.637L8.149 25.043V16.062ZM24.907 14.083L1 35.169L3.52 38L25.005 19.046L46.486 38L49 35.169L25.097 14.083L25 14L24.907 14.083Z" fill="#9C2E29"/>
<path d="M25 55.3333C20.8583 55.3333 17.5 53.1817 17.5 49.5V49.4267C17.5 47.6617 18.615 46.25 20.3125 45.3333C21.9367 44.4567 22.8967 42.8417 22.6567 41.1667L22.1875 38.6667L23.9258 39.3292C27.0567 40.5208 29.6642 42.5892 31.3542 45.2175C32.0972 46.3592 32.4951 47.6911 32.5 49.0533V49.5C32.5 50.8017 32.08 51.9125 31.3542 52.8042" stroke="#9C2E29" stroke-width="2" stroke-linecap="round" stroke-linejoin="round"/>
<path d="M25 55.3333C23.6192 55.3333 22.5 54.1392 22.5 52.6667C22.5 51.5 23.3467 50.5658 24.0917 49.71L25 48.6667L25.9083 49.71C26.6533 50.5667 27.5 51.5 27.5 52.6667C27.5 54.1392 26.3808 55.3333 25 55.3333Z" stroke="#9C2E29" stroke-width="2" stroke-linecap="round" stroke-linejoin="round"/>
</svg>
