<svg width="74" height="54" viewBox="0 0 74 54" fill="none" xmlns="http://www.w3.org/2000/svg">
<path d="M4.50243 24.7121C4.263 25.1794 4.13877 25.6921 4.13913 26.2115L4.27423 34.2523L1.33073 40.2366C1.22416 40.4228 1.15285 40.6253 1.12003 40.8348C1.08211 41.07 1.09364 41.31 1.15395 41.541C1.21425 41.772 1.32215 41.9894 1.47144 42.1807C1.62073 42.3721 1.80846 42.5336 2.02386 42.656C2.23925 42.7784 2.47804 42.8592 2.72653 42.8939C3.11362 42.9501 3.5096 42.8921 3.86065 42.7276C4.2117 42.5632 4.50079 42.3003 4.68863 41.9748L7.92683 35.4334C7.99403 35.2815 8.05423 35.1217 8.07873 34.9466L8.09623 34.6999L8.07103 29.7289L13.0473 31.7794L13.8509 36.6377C13.9344 36.9947 14.1302 37.3193 14.4126 37.5687C14.6949 37.8181 15.0504 37.9804 15.4322 38.0343C15.9333 38.1044 16.4433 37.9846 16.8518 37.701C17.2603 37.4174 17.5345 36.9927 17.6148 36.519C17.6393 36.3512 17.6393 36.1834 17.6225 36.0243L16.6418 30.1593C16.5829 29.8779 16.455 29.6136 16.2685 29.3876C16.082 29.1616 15.8421 28.9802 15.568 28.8582L11.1202 26.9934L13.9524 22.342L15.3573 24.0257C15.5008 24.1769 15.687 24.3049 15.8977 24.3845L21.2513 25.86C21.5976 25.9317 21.9594 25.8854 22.2733 25.7295C22.5872 25.5735 22.8331 25.3178 22.9677 25.0072C23.0423 24.8337 23.0801 24.6479 23.0788 24.4605C23.0775 24.2731 23.0373 24.0878 22.9604 23.9152C22.8835 23.7425 22.7714 23.586 22.6306 23.4544C22.4897 23.3228 22.3229 23.2188 22.1396 23.1484L22.0633 23.1245L17.4118 21.832L13.9104 17.867C13.3701 17.321 12.6531 16.9614 11.8727 16.8451C11.1989 16.7499 10.5105 16.8434 9.89209 17.1142C9.2737 17.385 8.75239 17.8211 8.39233 18.369L4.50243 24.7121ZM13.6066 16.4936C15.1879 16.4936 16.4731 15.2813 16.4731 13.7892C16.4724 12.2978 15.1879 11.0842 13.6066 11.0842C12.0253 11.0842 10.7394 12.2978 10.7394 13.7892C10.7387 15.2813 12.0246 16.4936 13.6066 16.4936ZM7.90233 16.9167C7.95572 16.8287 7.9902 16.7316 8.00379 16.6309C8.01737 16.5302 8.0098 16.428 7.98149 16.3301C7.95319 16.2322 7.90472 16.1406 7.83887 16.0605C7.77302 15.9804 7.6911 15.9135 7.59783 15.8636L6.21043 15.0976C6.02072 14.9958 5.79633 14.9689 5.58581 15.0226C5.37529 15.0764 5.19557 15.2065 5.08553 15.3848L0.807126 22.3506C0.753986 22.4386 0.719689 22.5357 0.706199 22.6363C0.692709 22.7369 0.700289 22.839 0.728507 22.9368C0.756725 23.0346 0.805026 23.1262 0.870646 23.2063C0.936266 23.2864 1.01792 23.3535 1.11093 23.4037L2.50673 24.1623C2.694 24.2649 2.91649 24.293 3.12558 24.2405C3.33467 24.1881 3.51333 24.0594 3.62253 23.8825L7.90233 16.9167Z" fill="#9C2E29"/>
<path d="M42.6339 6.74229C43.4469 6.1244 44.458 5.78765 45.5002 5.78765C46.5425 5.78765 47.5535 6.1244 48.3665 6.74229L64.1433 18.7341C64.6785 19.1409 65.1104 19.6565 65.4071 20.2426C65.7038 20.8288 65.8577 21.4706 65.8574 22.1207V43.875C65.8574 45.0258 65.3748 46.1296 64.5158 46.9433C63.6568 47.7571 62.4918 48.2143 61.277 48.2143H55.1699C53.9551 48.2143 52.79 47.7571 51.9311 46.9433C51.0721 46.1296 50.5895 45.0258 50.5895 43.875V32.3036C50.5895 31.92 50.4286 31.552 50.1423 31.2808C49.856 31.0095 49.4676 30.8571 49.0627 30.8571H41.9377C41.5328 30.8571 41.1444 31.0095 40.8581 31.2808C40.5718 31.552 40.4109 31.92 40.4109 32.3036V43.875C40.4109 45.0258 39.9284 46.1296 39.0694 46.9433C38.2104 47.7571 37.0454 48.2143 35.8306 48.2143H29.7234C28.5086 48.2143 27.3436 47.7571 26.4846 46.9433C25.6256 46.1296 25.1431 45.0258 25.1431 43.875V22.1207C25.1431 20.8054 25.7741 19.5596 26.8571 18.7361L42.6339 6.74421V6.74229ZM46.455 8.99871C46.1841 8.79307 45.8473 8.68102 45.5002 8.68102C45.1531 8.68102 44.8163 8.79307 44.5455 8.99871L28.7687 20.9906C28.5902 21.126 28.4462 21.2978 28.3472 21.493C28.2482 21.6883 28.1967 21.9022 28.1966 22.1188V43.8731C28.1966 44.6734 28.8806 45.3195 29.7234 45.3195H35.8306C36.2355 45.3195 36.6238 45.1671 36.9102 44.8958C37.1965 44.6246 37.3574 44.2567 37.3574 43.8731V32.3016C37.3574 31.1508 37.8399 30.0471 38.6989 29.2333C39.5579 28.4195 40.7229 27.9624 41.9377 27.9624H49.0627C49.6644 27.9624 50.2602 28.0747 50.816 28.2928C51.3719 28.511 51.8769 28.8308 52.3022 29.234C52.7276 29.6371 53.0649 30.1157 53.295 30.6424C53.5251 31.1691 53.6433 31.7336 53.6431 32.3036V43.875C53.6431 44.6754 54.3271 45.3214 55.1699 45.3214H61.277C61.6819 45.3214 62.0703 45.169 62.3566 44.8978C62.6429 44.6265 62.8038 44.2586 62.8038 43.875V22.1207C62.8039 21.9042 62.7528 21.6905 62.6542 21.4952C62.5555 21.3 62.4119 21.1282 62.2338 20.9925L46.457 9.00064L46.455 8.99871Z" fill="#9C2E29"/>
</svg>
