<svg width="43" height="38" viewBox="0 0 43 38" fill="none" xmlns="http://www.w3.org/2000/svg">
<path d="M43 4.75C43 6.06145 41.9317 7.125 40.6111 7.125H33.4444V14.25C33.4444 15.5614 32.3762 16.625 31.0556 16.625H23.8889V23.75C23.8889 25.0614 22.8206 26.125 21.5 26.125H14.3333V33.25C14.3333 34.5614 13.2651 35.625 11.9444 35.625H2.38889C1.06828 35.625 0 34.5614 0 33.25C0 31.9386 1.06828 30.875 2.38889 30.875H9.55556V23.75C9.55556 22.4386 10.6238 21.375 11.9444 21.375H19.1111V14.25C19.1111 12.9386 20.1794 11.875 21.5 11.875H28.6667V4.75C28.6667 3.43855 29.7349 2.375 31.0556 2.375H40.6111C41.9325 2.375 43 3.43855 43 4.75Z" fill="#9C2E29"/>
</svg>
