<svg width="47" height="49" viewBox="0 0 47 49" fill="none" xmlns="http://www.w3.org/2000/svg">
<path fill-rule="evenodd" clip-rule="evenodd" d="M29.9619 25.4032C29.5884 24.347 28.8966 23.4326 27.9819 22.7858C27.0671 22.139 25.9743 21.7917 24.854 21.7917V20.4375H22.1457V21.7917C20.7091 21.7917 19.3313 22.3624 18.3155 23.3782C17.2997 24.394 16.729 25.7717 16.729 27.2083C16.729 28.6449 17.2997 30.0227 18.3155 31.0385C19.3313 32.0543 20.7091 32.625 22.1457 32.625V38.0417C20.9675 38.0417 19.9641 37.2901 19.5904 36.2366C19.5349 36.0642 19.4455 35.9047 19.3273 35.7675C19.2091 35.6303 19.0646 35.5182 18.9024 35.4379C18.7401 35.3575 18.5634 35.3105 18.3827 35.2996C18.2019 35.2887 18.0209 35.3141 17.8501 35.3745C17.6794 35.4348 17.5225 35.5287 17.3887 35.6507C17.255 35.7727 17.147 35.9204 17.0713 36.0848C16.9955 36.2493 16.9535 36.4273 16.9478 36.6082C16.942 36.7892 16.9726 36.9695 17.0378 37.1384C17.4113 38.1947 18.1031 39.1091 19.0178 39.7559C19.9326 40.4027 21.0253 40.75 22.1457 40.75V42.1042H24.854V40.75C26.2906 40.75 27.6683 40.1793 28.6842 39.1635C29.7 38.1477 30.2707 36.7699 30.2707 35.3333C30.2707 33.8967 29.7 32.519 28.6842 31.5032C27.6683 30.4874 26.2906 29.9167 24.854 29.9167V24.5C25.4141 24.4999 25.9605 24.6734 26.4179 24.9967C26.8753 25.3199 27.2212 25.7771 27.408 26.3051C27.5276 26.6438 27.7768 26.9211 28.1008 27.076C28.2613 27.1527 28.4353 27.197 28.6129 27.2065C28.7905 27.216 28.9682 27.1904 29.1359 27.1311C29.3036 27.0719 29.458 26.9803 29.5902 26.8614C29.7225 26.7425 29.8301 26.5987 29.9068 26.4383C29.9835 26.2778 30.0278 26.1038 30.0373 25.9262C30.0467 25.7486 30.0211 25.5709 29.9619 25.4032ZM22.1457 24.5C21.4274 24.5 20.7385 24.7853 20.2306 25.2933C19.7227 25.8012 19.4373 26.49 19.4373 27.2083C19.4373 27.9266 19.7227 28.6155 20.2306 29.1234C20.7385 29.6313 21.4274 29.9167 22.1457 29.9167V24.5ZM24.854 38.0417C25.5723 38.0417 26.2612 37.7563 26.7691 37.2484C27.277 36.7405 27.5623 36.0516 27.5623 35.3333C27.5623 34.615 27.277 33.9262 26.7691 33.4183C26.2612 32.9103 25.5723 32.625 24.854 32.625V38.0417Z" fill="#9C2E29"/>
<path fill-rule="evenodd" clip-rule="evenodd" d="M8.81116 3.67427C12.1343 2.04792 17.5862 0.125 23.5526 0.125C29.3945 0.125 34.7028 1.96802 38.0084 3.57271L38.1952 3.66344C39.1919 4.15635 39.9963 4.62219 40.5623 5L35.56 12.3125C47.0921 24.1019 55.9998 48.8709 23.5526 48.8709C-8.89456 48.8709 -0.226543 24.5515 11.4057 12.3125L6.43596 5C6.81919 4.74948 7.30533 4.45833 7.88491 4.14958C8.172 3.99521 8.48075 3.83677 8.81116 3.67562V3.67427ZM32.3452 12.215L36.3495 6.36094C32.6255 6.62906 28.1947 7.50385 23.9291 8.73885C20.8822 9.61906 17.4968 9.485 14.3619 8.90677C13.5719 8.76031 12.7874 8.58597 12.0097 8.38406L14.6097 12.2123C20.1821 14.1961 26.7715 14.1961 32.3452 12.215ZM13.0456 14.5198C19.566 17.0385 27.4025 17.0385 33.9228 14.5171C36.6445 17.3861 38.9213 20.6466 40.6774 24.1899C42.5083 27.9247 43.5049 31.6581 43.3424 34.8756C43.1853 37.9807 41.9639 40.6335 39.1743 42.6052C36.2669 44.6595 31.377 46.1626 23.5513 46.1626C15.7174 46.1626 10.8045 44.6852 7.87002 42.654C5.06012 40.7067 3.82648 38.0904 3.65179 35.0273C3.46898 31.845 4.44398 28.1305 6.26804 24.37C8.00814 20.7842 10.4362 17.3324 13.0456 14.5198ZM11.4884 5.42792C12.5717 5.75021 13.7038 6.03052 14.8521 6.24312C17.7636 6.77937 20.6831 6.85792 23.1748 6.13615C26.0784 5.29026 29.0317 4.62499 32.0175 4.14417C29.5259 3.39396 26.6117 2.83333 23.5513 2.83333C18.8862 2.83333 14.5352 4.13469 11.4884 5.42792Z" fill="#9C2E29"/>
</svg>
