<svg width="44" height="49" viewBox="0 0 44 49" fill="none" xmlns="http://www.w3.org/2000/svg">
<path d="M39.111 5.35726H29.0093C28.5145 3.94457 27.5929 2.72057 26.372 1.85459C25.151 0.988604 23.6912 0.523438 22.1943 0.523438C20.6975 0.523437 19.2376 0.988604 18.0167 1.85459C16.7958 2.72057 15.8742 3.94457 15.3793 5.35726H5.27767C3.99697 5.36108 2.76981 5.87154 1.86421 6.77714C0.958614 7.68273 0.448161 8.90989 0.444336 10.1906V44.0239C0.448161 45.3046 0.958614 46.5318 1.86421 47.4374C2.76981 48.343 3.99697 48.8534 5.27767 48.8573H39.111C40.3917 48.8534 41.6189 48.343 42.5245 47.4374C43.4301 46.5318 43.9405 45.3046 43.9443 44.0239V10.1906C43.9405 8.90989 43.4301 7.68273 42.5245 6.77714C41.6189 5.87154 40.3917 5.36108 39.111 5.35726ZM22.1943 5.35726C22.6723 5.35726 23.1395 5.49899 23.537 5.76454C23.9344 6.03009 24.2441 6.40752 24.427 6.84911C24.61 7.2907 24.6578 7.77661 24.5646 8.24539C24.4713 8.71418 24.2412 9.14479 23.9032 9.48277C23.5652 9.82074 23.1346 10.0509 22.6658 10.1442C22.197 10.2374 21.7111 10.1895 21.2695 10.0066C20.8279 9.82372 20.4505 9.51397 20.185 9.11655C19.9194 8.71914 19.7777 8.2519 19.7777 7.77393C19.7796 7.13357 20.0348 6.52 20.4876 6.0672C20.9404 5.6144 21.554 5.35917 22.1943 5.35726ZM17.361 17.4406L24.1035 24.1928L30.1935 18.1028L27.0277 15.0239H36.6943V24.6906L33.6107 21.5223L24.1083 31.0319L17.361 24.2798L11.1115 30.5244L7.69434 27.1073L17.361 17.4406ZM39.111 41.6073H5.27767V36.7739H39.111V41.6073Z" fill="#9C2E29"/>
</svg>
