<svg width="69" height="65" viewBox="0 0 69 65" fill="none" xmlns="http://www.w3.org/2000/svg">
<path d="M34.3082 31.2365C39.4832 31.2365 43.5082 27.2643 43.5082 22.3893C43.5082 17.5143 39.2915 13.7227 34.1165 13.7227C28.9415 13.7227 24.9165 17.6949 24.9165 22.3893C24.9165 27.2643 29.1332 31.2365 34.3082 31.2365ZM34.1165 17.3338C34.3082 17.3338 34.3082 17.3338 34.1165 17.3338C37.1832 17.3338 39.6748 19.681 39.6748 22.5699C39.6748 25.4588 37.1832 27.6254 34.1165 27.6254C31.0498 27.6254 28.7498 25.2782 28.7498 22.5699C28.7498 19.681 31.2415 17.3338 34.1165 17.3338Z" fill="#9C2E29"/>
<path d="M62.675 30.1525C59.0333 27.083 54.2417 25.458 49.2583 25.6386H47.725C47.3417 27.083 46.7667 28.3469 46 29.4303C47.15 29.2497 48.1083 29.2497 49.2583 29.2497C52.9 29.0691 56.5417 30.1525 59.4167 32.1386V45.1386H63.25V30.6941L62.675 30.1525Z" fill="#9C2E29"/>
<path d="M44.8498 14.0831C45.8082 11.9165 48.4915 10.8331 50.9832 11.7359C53.2832 12.6387 54.4332 15.1664 53.4748 17.5137C52.7082 19.1387 50.9832 20.222 49.2582 20.222C48.8748 20.222 48.2998 20.222 47.9165 20.0415C48.1082 20.9442 48.1082 21.847 48.1082 22.5692V23.6526C48.4915 23.6526 48.8748 23.8331 49.2582 23.8331C54.0498 23.8331 57.8832 20.222 57.8832 15.8887C57.8832 11.3748 54.0498 7.76367 49.4498 7.76367C46.3832 7.76367 43.6998 9.20812 42.1665 11.7359C43.1248 12.2776 44.0832 12.9998 44.8498 14.0831Z" fill="#9C2E29"/>
<path d="M23 29.6109C22.2333 28.5276 21.6583 27.2637 21.275 25.8193H19.7417C14.7583 25.6387 9.96667 27.2637 6.325 30.1526L5.75 30.6943V45.1387H9.58333V32.1387C12.65 30.1526 16.1 29.0693 19.7417 29.2498C20.8917 29.2498 22.0417 29.4304 23 29.6109Z" fill="#9C2E29"/>
<path d="M19.7419 23.6531C20.1252 23.6531 20.5085 23.6531 20.8919 23.4726V22.3892C20.8919 21.4865 20.8919 20.5837 21.0835 19.8615C20.7002 20.042 20.1252 20.042 19.7419 20.042C17.2502 20.042 15.1419 18.0559 15.1419 15.7087C15.1419 13.3615 17.2502 11.3753 19.7419 11.3753C21.6585 11.3753 23.3835 12.4587 24.1502 14.0837C24.9169 13.1809 26.0669 12.2781 27.0252 11.5559C24.5335 7.76423 19.3585 6.50034 15.3335 8.84756C11.3085 11.1948 9.96688 16.0698 12.4585 19.8615C13.9919 22.2087 16.6752 23.6531 19.7419 23.6531Z" fill="#9C2E29"/>
<path d="M50.0248 40.9862L49.6415 40.4445C45.8082 36.4723 40.4415 34.1251 34.6915 34.3056C28.9415 34.1251 23.3832 36.4723 19.5498 40.4445L19.1665 40.9862V54.7084C19.1665 56.3334 20.5082 57.7778 22.4248 57.7778H46.9582C48.6832 57.7778 50.2165 56.3334 50.2165 54.7084V40.9862H50.0248ZM46.1915 54.1667H22.9998V42.2501C26.0665 39.3612 30.2832 37.9167 34.6915 37.9167C38.9082 37.7362 43.1248 39.3612 46.1915 42.2501V54.1667Z" fill="#9C2E29"/>
</svg>
