<svg width="90" height="90" viewBox="0 0 90 90" fill="none" xmlns="http://www.w3.org/2000/svg">
<circle cx="45" cy="45" r="43.5" stroke="#9C2E29" stroke-width="3"/>
<path d="M43.5547 64.6172H33.5938C33.6198 62.2734 33.8021 60.2552 34.1406 58.5625C34.5052 56.8438 35.1172 55.2943 35.9766 53.9141C36.862 52.5339 38.0339 51.1667 39.4922 49.8125C40.7161 48.7188 41.7839 47.6771 42.6953 46.6875C43.6068 45.6979 44.3229 44.6823 44.8438 43.6406C45.3646 42.5729 45.625 41.388 45.625 40.0859C45.625 38.5755 45.3906 37.3255 44.9219 36.3359C44.4792 35.3203 43.8021 34.5521 42.8906 34.0312C42.0052 33.5104 40.8854 33.25 39.5312 33.25C38.4115 33.25 37.3698 33.4974 36.4062 33.9922C35.4427 34.4609 34.6484 35.1901 34.0234 36.1797C33.4245 37.1693 33.112 38.4714 33.0859 40.0859H21.7578C21.8359 36.5182 22.6562 33.5755 24.2188 31.2578C25.8073 28.9141 27.9297 27.1823 30.5859 26.0625C33.2422 24.9167 36.224 24.3438 39.5312 24.3438C43.1771 24.3438 46.3021 24.9427 48.9062 26.1406C51.5104 27.3125 53.5026 29.0443 54.8828 31.3359C56.263 33.6016 56.9531 36.362 56.9531 39.6172C56.9531 41.8828 56.5104 43.901 55.625 45.6719C54.7396 47.4167 53.5807 49.0443 52.1484 50.5547C50.7161 52.0651 49.1406 53.6276 47.4219 55.2422C45.9375 56.5703 44.9219 57.9635 44.375 59.4219C43.8542 60.8802 43.5807 62.612 43.5547 64.6172ZM32.4219 76.6875C32.4219 75.0208 32.9948 73.6406 34.1406 72.5469C35.2865 71.4271 36.8229 70.8672 38.75 70.8672C40.651 70.8672 42.1745 71.4271 43.3203 72.5469C44.4922 73.6406 45.0781 75.0208 45.0781 76.6875C45.0781 78.3021 44.4922 79.6693 43.3203 80.7891C42.1745 81.9089 40.651 82.4688 38.75 82.4688C36.8229 82.4688 35.2865 81.9089 34.1406 80.7891C32.9948 79.6693 32.4219 78.3021 32.4219 76.6875Z" fill="#9C2E29"/>
</svg>
