<svg width="39" height="33" viewBox="0 0 39 33" fill="none" xmlns="http://www.w3.org/2000/svg">
<path fill-rule="evenodd" clip-rule="evenodd" d="M0.25 2.75C0.25 2.02065 0.539731 1.32118 1.05546 0.805457C1.57118 0.289732 2.27065 0 3 0H36C36.7293 0 37.4288 0.289732 37.9445 0.805457C38.4603 1.32118 38.75 2.02065 38.75 2.75C38.75 3.47935 38.4603 4.17882 37.9445 4.69454C37.4288 5.21027 36.7293 5.5 36 5.5H3C2.27065 5.5 1.57118 5.21027 1.05546 4.69454C0.539731 4.17882 0.25 3.47935 0.25 2.75ZM0.25 16.5C0.25 15.7707 0.539731 15.0712 1.05546 14.5555C1.57118 14.0397 2.27065 13.75 3 13.75H36C36.7293 13.75 37.4288 14.0397 37.9445 14.5555C38.4603 15.0712 38.75 15.7707 38.75 16.5C38.75 17.2293 38.4603 17.9288 37.9445 18.4445C37.4288 18.9603 36.7293 19.25 36 19.25H3C2.27065 19.25 1.57118 18.9603 1.05546 18.4445C0.539731 17.9288 0.25 17.2293 0.25 16.5ZM16.75 30.25C16.75 29.5207 17.0397 28.8212 17.5555 28.3055C18.0712 27.7897 18.7707 27.5 19.5 27.5H36C36.7293 27.5 37.4288 27.7897 37.9445 28.3055C38.4603 28.8212 38.75 29.5207 38.75 30.25C38.75 30.9793 38.4603 31.6788 37.9445 32.1945C37.4288 32.7103 36.7293 33 36 33H19.5C18.7707 33 18.0712 32.7103 17.5555 32.1945C17.0397 31.6788 16.75 30.9793 16.75 30.25Z" fill="#9C2E29"/>
</svg>
