<svg xmlns="http://www.w3.org/2000/svg" version="1.1" xmlns:xlink="http://www.w3.org/1999/xlink" xmlns:svgjs="http://svgjs.com/svgjs" width="30" height="30" x="0" y="0" viewBox="0 0 100 100" style="enable-background:new 0 0 512 512" xml:space="preserve" class=""><g><g xmlns="http://www.w3.org/2000/svg" id="_x31_2.Viber"><path id="Icon_36_" d="m58 10h-16c-15.44 0-28 12.56-28 28v12c0 10.85 6.25 20.68 16 25.31v13.37c0 1.16 1.45 1.76 2.27.94l11.62-11.61h14.11c15.44 0 28-12.56 28-28.01v-12c0-15.44-12.56-28-28-28zm10.48 52.481-4.05 3.96c-4.26 4.17-15.38-.59-25.18-10.6-9.8-10.02-14.1-21.24-10.05-25.41l4.05-3.96c1.49-1.46 4.02-1.43 5.69.06l5.84 5.97c2.08 2.13 1.2 5.7-1.55 6.52-1.9.61-3.19 2.7-2.58 4.6 1.01 4.44 6.64 9.99 10.84 11.09 1.89.44 4.01-.59 4.67-2.48.87-2.73 4.46-3.54 6.55-1.4l5.83 5.96c1.46 1.489 1.44 4.02-.06 5.69zm-14.84-33.481c-.4 0-.8.02-1.19.07-.73.08-1.39-.45-1.47-1.18s.45-1.39 1.18-1.47c.49-.06.99-.08 1.48-.08 7.35 0 13.33 5.98 13.33 13.33 0 .49-.02.99-.08 1.48-.08.72-.75 1.26-1.47 1.18s-1.26-.75-1.18-1.47c.04-.39.07-.79.07-1.19 0-5.88-4.79-10.67-10.67-10.67zm8 10.67c0 .73-.61 1.33-1.34 1.33-.72 0-1.33-.6-1.33-1.33 0-2.94-2.39-5.33-5.33-5.33-.74 0-1.34-.6-1.34-1.34 0-.73.6-1.33 1.34-1.33 4.41 0 8 3.59 8 8zm10.17 4.31c-.17.72-.94 1.17-1.65.98-.69-.19-1.11-.91-.95-1.6.29-1.2.43-2.44.43-3.69 0-8.82-7.18-16-16-16-.41 0-.83.01-1.24.05-.73.05-1.37-.5-1.43-1.23-.05-.74.5-1.38 1.23-1.43.48-.04.96-.06 1.44-.06 10.29 0 18.67 8.38 18.67 18.67 0 1.45-.17 2.9-.5 4.31z" fill="#665cac" data-original="#665cac"></path></g></g></svg>