<svg width="72" height="75" viewBox="0 0 72 75" fill="none" xmlns="http://www.w3.org/2000/svg">
<path d="M38.5443 1.49218C38.2112 1.14461 37.8148 0.868727 37.3782 0.68046C36.9415 0.492193 36.4732 0.395264 36.0001 0.395264C35.5271 0.395264 35.0587 0.492193 34.622 0.68046C34.1854 0.868727 33.7891 1.14461 33.4559 1.49218L1.20594 34.8672C0.87008 35.2119 0.6035 35.6221 0.421579 36.074C0.239658 36.5259 0.145996 37.0106 0.145996 37.5001C0.145996 37.9896 0.239658 38.4743 0.421579 38.9262C0.6035 39.3781 0.87008 39.7883 1.20594 40.133C1.54077 40.4767 1.93786 40.7486 2.37444 40.9332C2.81103 41.1177 3.27852 41.2113 3.75011 41.2084H7.33344V67.1668C7.33344 69.1338 8.0885 71.0202 9.43251 72.4111C10.7765 73.802 12.5994 74.5834 14.5001 74.5834H57.5001C59.4008 74.5834 61.2237 73.802 62.5677 72.4111C63.9117 71.0202 64.6668 69.1338 64.6668 67.1668V41.2084H68.2501C69.2005 41.2084 70.1119 40.8177 70.7839 40.1223C71.4559 39.4268 71.8334 38.4836 71.8334 37.5001C71.8362 37.0121 71.7458 36.5283 71.5675 36.0764C71.3891 35.6246 71.1264 35.2137 70.7943 34.8672L38.5443 1.49218ZM14.5001 67.1668V31.6038L36.0001 9.35385L57.5001 31.6038V67.1668H14.5001Z" fill="#9C2E29"/>
<path d="M20.875 36.5352V35.0312C20.875 33.9505 21.1094 32.9674 21.5781 32.082C22.0469 31.1966 22.737 30.487 23.6484 29.9531C24.5599 29.4193 25.6797 29.1523 27.0078 29.1523C28.375 29.1523 29.5143 29.4193 30.4258 29.9531C31.3503 30.487 32.0404 31.1966 32.4961 32.082C32.9648 32.9674 33.1992 33.9505 33.1992 35.0312V36.5352C33.1992 37.5898 32.9648 38.5599 32.4961 39.4453C32.0404 40.3307 31.3568 41.0404 30.4453 41.5742C29.5339 42.1081 28.4076 42.375 27.0664 42.375C25.7122 42.375 24.5729 42.1081 23.6484 41.5742C22.737 41.0404 22.0469 40.3307 21.5781 39.4453C21.1094 38.5599 20.875 37.5898 20.875 36.5352ZM24.6055 35.0312V36.5352C24.6055 36.9909 24.6901 37.4271 24.8594 37.8438C25.0417 38.2474 25.3151 38.5794 25.6797 38.8398C26.0573 39.0872 26.513 39.2109 27.0469 39.2109C27.6068 39.2109 28.0625 39.0872 28.4141 38.8398C28.7656 38.5794 29.026 38.2474 29.1953 37.8438C29.3646 37.4271 29.4492 36.9909 29.4492 36.5352V35.0312C29.4492 34.5495 29.3581 34.1068 29.1758 33.7031C29.0065 33.2865 28.7396 32.9544 28.375 32.707C28.0234 32.4466 27.5677 32.3164 27.0078 32.3164C26.487 32.3164 26.0443 32.4466 25.6797 32.707C25.3151 32.9544 25.0417 33.2865 24.8594 33.7031C24.6901 34.1068 24.6055 34.5495 24.6055 35.0312ZM34.4688 52.5312V51.0273C34.4688 49.9596 34.7031 48.9831 35.1719 48.0977C35.6536 47.2122 36.3503 46.5026 37.2617 45.9688C38.1862 45.4349 39.319 45.168 40.6602 45.168C42.0143 45.168 43.1471 45.4349 44.0586 45.9688C44.9701 46.5026 45.6602 47.2122 46.1289 48.0977C46.5977 48.9831 46.832 49.9596 46.832 51.0273V52.5312C46.832 53.599 46.5977 54.5755 46.1289 55.4609C45.6732 56.3464 44.9896 57.056 44.0781 57.5898C43.1667 58.1237 42.0404 58.3906 40.6992 58.3906C39.3451 58.3906 38.2057 58.1237 37.2812 57.5898C36.3568 57.056 35.6536 56.3464 35.1719 55.4609C34.7031 54.5755 34.4688 53.599 34.4688 52.5312ZM38.2188 51.0273V52.5312C38.2188 53 38.3229 53.4427 38.5312 53.8594C38.7396 54.276 39.026 54.6081 39.3906 54.8555C39.7682 55.1029 40.2044 55.2266 40.6992 55.2266C41.3242 55.2266 41.8125 55.1029 42.1641 54.8555C42.5156 54.6081 42.7565 54.276 42.8867 53.8594C43.0299 53.4427 43.1016 53 43.1016 52.5312V51.0273C43.1016 50.5586 43.0104 50.1224 42.8281 49.7188C42.6458 49.3021 42.3724 48.9701 42.0078 48.7227C41.6562 48.4622 41.207 48.332 40.6602 48.332C40.1133 48.332 39.6576 48.4622 39.293 48.7227C38.9414 48.9701 38.6745 49.3021 38.4922 49.7188C38.3099 50.1224 38.2188 50.5586 38.2188 51.0273ZM42.0469 33.625L28.1602 55.8516L25.4258 54.4062L39.3125 32.1797L42.0469 33.625Z" fill="#9C2E29"/>
</svg>
