<svg width="89" height="76" viewBox="0 0 89 76" fill="none" xmlns="http://www.w3.org/2000/svg">
<path d="M87.0965 53.8645L67.0024 34.2903L65.6555 32.9776C65.3487 32.6804 64.9336 32.5137 64.5011 32.5137C64.0685 32.5137 63.6535 32.6804 63.3466 32.9776L41.9056 53.8645C41.5912 54.1698 41.3426 54.5334 41.1747 54.9338C41.0068 55.3342 40.9229 55.7634 40.9279 56.196C40.9488 57.9801 42.4724 59.4043 44.303 59.4043H46.5131V75.9121H82.489V59.4043H84.746C85.6352 59.4043 86.4725 59.0647 87.1017 58.4514C87.4116 58.1504 87.6571 57.7925 87.824 57.3984C87.9909 57.0043 88.076 56.5818 88.0742 56.1554C88.0742 55.2938 87.7258 54.4778 87.0965 53.8645ZM67.4133 72.2628H61.5889V61.9233H67.4133V72.2628ZM78.7448 55.755V72.2628H70.7415V60.7069C70.7415 59.5867 69.8106 58.6795 68.6613 58.6795H60.3408C59.1915 58.6795 58.2607 59.5867 58.2607 60.7069V72.2628H50.2574V55.755H45.265L64.5063 37.0171L65.7075 38.1879L83.7423 55.755H78.7448Z" fill="#9C2E29"/>
<g clip-path="url(#clip0_225_3382)">
<path d="M36.3906 0.753906C36.989 0.753906 37.5629 1.00136 37.986 1.44182C38.4091 1.88229 38.6469 2.47969 38.6469 3.1026V5.51706C57.2607 6.56927 72.4902 20.5769 72.4902 38.333C72.4902 38.333 72.4902 40.6817 70.234 40.6817C69.5617 40.6817 68.6456 40.0006 68.6456 40.0006L68.6276 39.9818L68.5148 39.8738C67.74 39.1732 66.9012 38.5533 66.0104 38.023C63.868 36.7166 61.4356 36.0139 58.9529 35.9843C56.0739 35.9843 53.6372 36.9849 51.8954 38.023C51.0046 38.5533 50.1658 39.1732 49.391 39.8738L49.2782 39.9818L49.2646 39.9959C49.2646 39.9959 48.3441 40.6817 47.6718 40.6817C46.9994 40.6817 46.0834 40.0006 46.0834 40.0006L46.0653 39.9818L45.9525 39.8738C45.1777 39.1732 44.3389 38.5533 43.4481 38.023C41.9611 37.1287 40.3368 36.5089 38.6469 36.191V64.1686V64.3518L38.6243 64.7417C38.5032 66.5418 38.0464 68.3 37.2796 69.9182C36.4991 71.586 35.3119 73.0113 33.8366 74.0519C32.1489 75.2122 30.0145 75.9121 27.3657 75.9121C24.7169 75.9121 22.578 75.2169 20.8949 74.0519C19.4193 73.0117 18.232 71.5862 17.4519 69.9182C16.6301 68.1818 16.1659 66.2859 16.0891 64.3518V64.2344L16.0846 64.1921V64.178C16.0846 64.178 16.0846 64.1686 18.3408 64.1686H16.0846V61.8199C16.0846 61.197 16.3223 60.5996 16.7454 60.1592C17.1686 59.7187 17.7424 59.4713 18.3408 59.4713C18.9392 59.4713 19.5131 59.7187 19.9362 60.1592C20.3593 60.5996 20.597 61.197 20.597 61.8199V64.1968L20.6106 64.4035C20.6895 65.5888 20.9884 66.7469 21.4905 67.8138C21.9192 68.711 22.5284 69.5378 23.3993 70.139C24.2566 70.7356 25.5021 71.2147 27.3657 71.2147C29.2294 71.2147 30.4748 70.7356 31.3322 70.139C32.2031 69.5378 32.8123 68.711 33.2454 67.8138C33.7762 66.6841 34.0787 65.4531 34.1344 64.1968V36.191C32.4445 36.5089 30.8201 37.1287 29.3332 38.023C28.3985 38.5808 27.5215 39.2372 26.7159 39.9818L26.6979 40.0006C26.6979 40.0006 25.7864 40.6817 25.1095 40.6817C24.4371 40.6817 23.5211 40.0006 23.5211 40.0006L23.5031 39.9818C22.6975 39.2372 21.8205 38.5808 20.8858 38.023C18.7435 36.7166 16.3111 36.0139 13.8284 35.9843C10.9494 35.9843 8.51721 36.9849 6.7709 38.023C5.83629 38.5808 4.95926 39.2372 4.15367 39.9818L4.13562 40.0006C4.13562 40.0006 3.22411 40.6817 2.54724 40.6817C0.291016 40.6817 0.291016 38.333 0.291016 38.333C0.291016 20.5769 15.5205 6.56927 34.1344 5.51706V3.1026C34.1344 2.47969 34.3721 1.88229 34.7952 1.44182C35.2184 1.00136 35.7922 0.753906 36.3906 0.753906ZM29.9694 10.7265C17.1856 13.0752 7.45228 22.2726 5.26825 33.5276C7.90772 32.0769 10.8437 31.3084 13.8284 31.2869C17.4654 31.2869 20.5068 32.4613 22.6818 33.6873C22.7602 29.9428 23.2816 26.2226 24.2341 22.6109C25.3261 18.5335 27.1221 14.32 29.9694 10.7265ZM27.1943 33.8846C29.9941 32.2097 33.1616 31.315 36.3906 31.2869C39.6197 31.315 42.7872 32.2097 45.587 33.8846C45.5253 30.5026 45.06 27.1416 44.2017 23.8791C42.8615 18.8764 40.4428 14.0475 36.3906 10.6983C32.3384 14.0428 29.9198 18.8717 28.5796 23.8698C27.7208 27.1338 27.2555 30.4963 27.1943 33.8799V33.8846ZM42.8073 10.7265C45.6547 14.32 47.4552 18.5335 48.5472 22.6109C49.5986 26.5238 50.0273 30.4085 50.0995 33.6873C52.8139 32.1357 55.8562 31.3108 58.9529 31.2869C62.4275 31.2869 65.3606 32.3673 67.513 33.5276C65.329 22.2726 55.5956 13.0705 42.8118 10.7265H42.8073Z" fill="#9C2E29"/>
</g>
<defs>
<clipPath id="clip0_225_3382">
<rect width="72.1992" height="75.1582" fill="white" transform="translate(0.291016 0.753906)"/>
</clipPath>
</defs>
</svg>
